<?xml version="1.0" encoding="utf-8"?>
<!-- Generator: Adobe Illustrator 15.1.0, SVG Export Plug-In . SVG Version: 6.00 Build 0)  -->
<!DOCTYPE svg PUBLIC "-//W3C//DTD SVG 1.1//EN" "http://www.w3.org/Graphics/SVG/1.1/DTD/svg11.dtd">
<svg version="1.1"
	 id="svg2" xmlns:dc="http://purl.org/dc/elements/1.1/" xmlns:cc="http://creativecommons.org/ns#" xmlns:svg="http://www.w3.org/2000/svg" xmlns:rdf="http://www.w3.org/1999/02/22-rdf-syntax-ns#"
	 xmlns="http://www.w3.org/2000/svg" xmlns:xlink="http://www.w3.org/1999/xlink" x="0px" y="0px" width="293.125px" height="177px"
	 viewBox="0 0 293.125 177" enable-background="new 0 0 293.125 177" xml:space="preserve">
<g id="g10" transform="matrix(1.25,0,0,-1.25,0,177)">
	<g id="g12" transform="scale(0.1,0.1)">
		<g id="g14">
			<g>
				<defs>
					<rect id="SVGID_1_" x="1025.938" y="619.491" width="293.125" height="176.998"/>
				</defs>
				<clipPath id="SVGID_2_">
					<use xlink:href="#SVGID_1_"  overflow="visible"/>
				</clipPath>
				<g id="g16" clip-path="url(#SVGID_2_)">
					<path id="path22" fill="#1193D6" d="M654.402,1114.769c-30.707,0-58.383,0.152-86.055-0.168
						c-3.992-0.051-9.48-1.133-11.691-3.844c-18.863-23.129-37.129-46.75-56.863-71.859c27.137-6.418,48.184-11.398,69.23-16.391
						c-2.793,2.812-5.586,5.613-8.383,8.422C590.688,1057.789,620.73,1084.66,654.402,1114.769z M480.305,773.789
						c-0.082,0-0.16,0-0.238,0c0-57.238-0.043-114.476,0.02-171.711c0.027-23.625,5.109-28.625,28.723-28.852
						c25.812-0.25,35.438,6.828,35.66,28.211c0.43,41.492-0.094,82.992,0.09,124.484c0.336,77.25-0.676,154.559,2.352,231.707
						c0.875,22.289-7.477,27.848-24.758,30.438c-31.113,4.664-37.906-0.664-40.871-31.867c-0.746-7.82-0.926-15.719-0.938-23.582
						C480.266,879.672,480.305,826.73,480.305,773.789z M913.375,855.09c-82.004-27.77-162.996-29.035-245.438-0.051
						c0-53.34,0-103.707,0-157.336C750.09,727,831.02,729.414,913.375,700.062C913.375,752.5,913.375,801.613,913.375,855.09z
						 M912.469,1000.469c0.184,0,0.371,0,0.555,0c0,21.473,0.906,42.992-0.461,64.383c-0.52,8.156-4.367,17.758-9.938,23.648
						c-15.617,16.48-32.484,31.891-49.852,46.551c-4.586,3.879-13.438,6.109-19.176,4.629
						c-28.824-7.438-56.926-21.508-85.926-23.391c-32.812-2.141-48.605-19.547-61.375-44.488c-5.496-10.75-11.512-22.27-12.77-33.93
						c-3.512-32.562-3.98-65.441-7.047-98.066c-1.465-15.609,5.711-21.531,19.043-25.406
						c70.191-20.387,140.219-27.656,210.832-1.402c10.949,4.07,16.781,8.418,16.336,20.914
						C911.898,956.07,912.469,978.281,912.469,1000.469z M761.391,315.062c8.992,10.008,15.883,18.125,23.246,25.789
						c30.512,31.758,67.887,51.883,109.883,63.859c11.754,3.336,17.113,9.305,16.984,22.625
						c-0.66,67.258-0.566,134.523-0.059,201.773c0.09,12.188-3.961,19.078-15.816,21.023
						c-70.43,11.547-140.703,15.117-210.555-4.086c-12.797-3.516-18.914-10.836-18.168-24.812
						c0.957-17.844,0.027-35.773,0.465-53.656c1.766-71.758-31.887-125.547-85.449-169.344c-7.98-6.523-16.02-12.969-28.617-23.188
						C631.672,372.375,702.996,366.641,761.391,315.062z M1095.828,626.891c-7.977,0-16.949,0-27.289,0
						c-0.828-4.531-2.418-9.234-2.438-13.938c-0.152-55.141-1.051-110.297,0.309-165.406c0.809-32.469,15.078-60.703,36.141-85.258
						c7.328-8.555,15.328-16.508,22.59-24.273c-64.301-24.977-129.793-43.641-188.445-75.062
						c-59.578-31.922-100.828-87.688-140.922-145.078c-18.176,15.523-34.434,31.203-52.461,44.484
						c-98.422,72.516-208.832,96.016-327.34,70.484C318.414,211.812,256.84,144.516,214.559,57.57
						c-7.094-14.586-12.98-29.758-20.504-47.164c-3.066,4.594-5.598,6.633-5.715,8.805c-4.086,77.008,1.008,153.414,46.477,218.492
						c51.168,73.234,123.262,118.203,212.051,133.25c53.77,9.109,91.855,46.078,98.023,100.508
						c1.828,16.133,0.281,32.648,0.281,49.383c-22.035,0-43.531,0-69.145,0c-16.848-72.203-64.082-126.195-131.141-163.414
						c-20.699-11.492-43.316-19.523-65.059-29.141c-1.598,2.18-3.195,4.352-4.797,6.531c3.723,5.117,7.34,10.305,11.188,15.328
						c15.613,20.383,32.191,40.086,46.727,61.211c18.559,26.969,22.129,57.766,22.023,90.125
						c-0.191,57.258,1.594,114.547,3.824,171.766c0.68,17.391-5.152,25.266-21.684,20.625c-25.141-7.07-50.926-13.633-74.227-24.961
						c-22.93-11.148-43.031-28.086-64.535-42.234c-6.68-4.398-13.891-7.984-22.781-9.922c11.477,54.07,28.684,104.898,78.5,134.117
						c25.426,14.918,54.789,23.617,83.102,32.898c11.973,3.926,18.016,7.492,18.211,21.191c0.66,46.207-11.223,56.68-57.348,38.996
						c-30.188-11.57-57.129-31.688-85.332-48.305c-7.66-4.512-14.621-10.207-22.898-16.066
						c-8.062,45.297,38.113,128.773,84.508,144.633c22.312,7.625,44.93,14.48,67.691,20.648c11.652,3.156,18.031,7.738,19.117,21.25
						c2.684,33.395,18.402,60.93,41.301,85.148c24.062,25.449,47.004,51.961,71.102,78.738
						c-60.145,20.973-124.902,44.801-177.953,91.082c-52.375,45.691-100.449,94.16-116.082,166.539
						c103.945-81.469,215.648-143.809,349.918-152.637c131.609-8.652,258.371,9.109,376.605,78.277
						c52.066-87.969,107.723-172.02,211.602-208.75c-4-5.527-5.66-9.691-8.73-11.762c-29.898-20.148-42.688-49.066-42.867-84.047
						c-0.332-63.66-0.102-127.32-0.102-192.836c11,0,20.559,0,33.43,0c0,11.805,0.91,24.488-0.219,36.984
						c-1.5,16.52,5.648,21.227,21.148,20.598c23.59-0.957,47.27-0.844,70.879-0.039c14.891,0.512,19.945-5.332,20.312-20.023
						c1-39.414,1.539-39.398,42.023-39.398c237.008,0,474.031,0,711.031,0c28.812,0,28.781-0.016,31.336-29.438
						c0.242-2.773,1.305-5.473,2.133-8.75c3.594-0.801,6.969-2,10.414-2.25c35.453-2.602,35.461-2.559,35.477-39.18
						c0-4.297,0-8.594,0-12.891c0-47.082,0-47.082-44.586-52.051c-0.836-1.125-2.242-2.18-2.398-3.406
						c-5.219-38.305-5.211-38.305-45.438-38.312c-28.641,0-57.305-0.547-85.922,0.227c-13.75,0.367-20.125-4.055-18.781-18.312
						c0.656-7.102,0.453-14.32,0.109-21.461c-0.539-10.953,4.188-15.531,15.266-15.102c14.117,0.539,28.266,0.133,46.969,0.133
						c-4.828-8.43-6.734-13.438-10.023-17.234c-62.805-72.453-125.523-144.984-189.055-216.789
						c-5.75-6.5-16.836-11.555-25.516-11.664c-70.875-0.938-141.781-0.125-212.656-0.812c-17.438-0.172-21.812,6.844-21.656,23.008
						c0.641,67.305,0.578,134.617,0.055,201.93c-0.117,15.062,3.68,22.625,20.398,21.742c20.711-1.086,41.539-0.758,62.281-0.094
						c13.891,0.445,19.453-5.32,19.219-18.945c-0.398-24.203-0.109-48.406-0.109-75.844c25.711,0,49.008-0.562,72.219,0.625
						c3.312,0.172,8.766,8.781,8.852,13.562c0.727,40.078,0.18,80.188,0.555,120.281c0.164,17.258-11.758,14.719-22.234,14.719
						c-114.57,0.055-229.141,0.031-343.711,0.031c-12.891,0-25.812-0.57-38.664,0.141c-12.828,0.719-17.445-4.281-18.055-17.25
						c-1.953-41.953-2.398-42.094-45.543-41.844c-19.988,0.109-44.598-5.727-58.457,3.766
						C1096.352,579.828,1099.25,606.891,1095.828,626.891"/>
					<path id="path24" fill="none" stroke="#100F0D" stroke-width="10" d="M654.402,1114.769c-30.707,0-58.383,0.152-86.055-0.168
						c-3.992-0.051-9.48-1.133-11.691-3.844c-18.863-23.129-37.129-46.75-56.863-71.859c27.137-6.418,48.184-11.398,69.23-16.391
						c-2.793,2.812-5.586,5.613-8.383,8.422C590.688,1057.789,620.73,1084.66,654.402,1114.769z M480.305,773.789
						c-0.082,0-0.16,0-0.238,0c0-57.238-0.043-114.476,0.02-171.711c0.027-23.625,5.109-28.625,28.723-28.852
						c25.812-0.25,35.438,6.828,35.66,28.211c0.43,41.492-0.094,82.992,0.09,124.484c0.336,77.25-0.676,154.559,2.352,231.707
						c0.875,22.289-7.477,27.848-24.758,30.438c-31.113,4.664-37.906-0.664-40.871-31.867c-0.746-7.82-0.926-15.719-0.938-23.582
						C480.266,879.672,480.305,826.73,480.305,773.789z M913.375,855.09c-82.004-27.77-162.996-29.035-245.438-0.051
						c0-53.34,0-103.707,0-157.336C750.09,727,831.02,729.414,913.375,700.062C913.375,752.5,913.375,801.613,913.375,855.09z
						 M912.469,1000.469c0.184,0,0.371,0,0.555,0c0,21.473,0.906,42.992-0.461,64.383c-0.52,8.156-4.367,17.758-9.938,23.648
						c-15.617,16.48-32.484,31.891-49.852,46.551c-4.586,3.879-13.438,6.109-19.176,4.629
						c-28.824-7.438-56.926-21.508-85.926-23.391c-32.812-2.141-48.605-19.547-61.375-44.488c-5.496-10.75-11.512-22.27-12.77-33.93
						c-3.512-32.562-3.98-65.441-7.047-98.066c-1.465-15.609,5.711-21.531,19.043-25.406
						c70.191-20.387,140.219-27.656,210.832-1.402c10.949,4.07,16.781,8.418,16.336,20.914
						C911.898,956.07,912.469,978.281,912.469,1000.469z M761.391,315.062c8.992,10.008,15.883,18.125,23.246,25.789
						c30.512,31.758,67.887,51.883,109.883,63.859c11.754,3.336,17.113,9.305,16.984,22.625
						c-0.66,67.258-0.566,134.523-0.059,201.773c0.09,12.188-3.961,19.078-15.816,21.023
						c-70.43,11.547-140.703,15.117-210.555-4.086c-12.797-3.516-18.914-10.836-18.168-24.812
						c0.957-17.844,0.027-35.773,0.465-53.656c1.766-71.758-31.887-125.547-85.449-169.344c-7.98-6.523-16.02-12.969-28.617-23.188
						C631.672,372.375,702.996,366.641,761.391,315.062z M1095.828,626.891c-7.977,0-16.949,0-27.289,0
						c-0.828-4.531-2.418-9.234-2.438-13.938c-0.152-55.141-1.051-110.297,0.309-165.406c0.809-32.469,15.078-60.703,36.141-85.258
						c7.328-8.555,15.328-16.508,22.59-24.273c-64.301-24.977-129.793-43.641-188.445-75.062
						c-59.578-31.922-100.828-87.688-140.922-145.078c-18.176,15.523-34.434,31.203-52.461,44.484
						c-98.422,72.516-208.832,96.016-327.34,70.484C318.414,211.812,256.84,144.516,214.559,57.57
						c-7.094-14.586-12.98-29.758-20.504-47.164c-3.066,4.594-5.598,6.633-5.715,8.805c-4.086,77.008,1.008,153.414,46.477,218.492
						c51.168,73.234,123.262,118.203,212.051,133.25c53.77,9.109,91.855,46.078,98.023,100.508
						c1.828,16.133,0.281,32.648,0.281,49.383c-22.035,0-43.531,0-69.145,0c-16.848-72.203-64.082-126.195-131.141-163.414
						c-20.699-11.492-43.316-19.523-65.059-29.141c-1.598,2.18-3.195,4.352-4.797,6.531c3.723,5.117,7.34,10.305,11.188,15.328
						c15.613,20.383,32.191,40.086,46.727,61.211c18.559,26.969,22.129,57.766,22.023,90.125
						c-0.191,57.258,1.594,114.547,3.824,171.766c0.68,17.391-5.152,25.266-21.684,20.625c-25.141-7.07-50.926-13.633-74.227-24.961
						c-22.93-11.148-43.031-28.086-64.535-42.234c-6.68-4.398-13.891-7.984-22.781-9.922c11.477,54.07,28.684,104.898,78.5,134.117
						c25.426,14.918,54.789,23.617,83.102,32.898c11.973,3.926,18.016,7.492,18.211,21.191c0.66,46.207-11.223,56.68-57.348,38.996
						c-30.188-11.57-57.129-31.688-85.332-48.305c-7.66-4.512-14.621-10.207-22.898-16.066
						c-8.062,45.297,38.113,128.773,84.508,144.633c22.312,7.625,44.93,14.48,67.691,20.648c11.652,3.156,18.031,7.738,19.117,21.25
						c2.684,33.395,18.402,60.93,41.301,85.148c24.062,25.449,47.004,51.961,71.102,78.738
						c-60.145,20.973-124.902,44.801-177.953,91.082c-52.375,45.691-100.449,94.16-116.082,166.539
						c103.945-81.469,215.648-143.809,349.918-152.637c131.609-8.652,258.371,9.109,376.605,78.277
						c52.066-87.969,107.723-172.02,211.602-208.75c-4-5.527-5.66-9.691-8.73-11.762c-29.898-20.148-42.688-49.066-42.867-84.047
						c-0.332-63.66-0.102-127.32-0.102-192.836c11,0,20.559,0,33.43,0c0,11.805,0.91,24.488-0.219,36.984
						c-1.5,16.52,5.648,21.227,21.148,20.598c23.59-0.957,47.27-0.844,70.879-0.039c14.891,0.512,19.945-5.332,20.312-20.023
						c1-39.414,1.539-39.398,42.023-39.398c237.008,0,474.031,0,711.031,0c28.812,0,28.781-0.016,31.336-29.438
						c0.242-2.773,1.305-5.473,2.133-8.75c3.594-0.801,6.969-2,10.414-2.25c35.453-2.602,35.461-2.559,35.477-39.18
						c0-4.297,0-8.594,0-12.891c0-47.082,0-47.082-44.586-52.051c-0.836-1.125-2.242-2.18-2.398-3.406
						c-5.219-38.305-5.211-38.305-45.438-38.312c-28.641,0-57.305-0.547-85.922,0.227c-13.75,0.367-20.125-4.055-18.781-18.312
						c0.656-7.102,0.453-14.32,0.109-21.461c-0.539-10.953,4.188-15.531,15.266-15.102c14.117,0.539,28.266,0.133,46.969,0.133
						c-4.828-8.43-6.734-13.438-10.023-17.234c-62.805-72.453-125.523-144.984-189.055-216.789
						c-5.75-6.5-16.836-11.555-25.516-11.664c-70.875-0.938-141.781-0.125-212.656-0.812c-17.438-0.172-21.812,6.844-21.656,23.008
						c0.641,67.305,0.578,134.617,0.055,201.93c-0.117,15.062,3.68,22.625,20.398,21.742c20.711-1.086,41.539-0.758,62.281-0.094
						c13.891,0.445,19.453-5.32,19.219-18.945c-0.398-24.203-0.109-48.406-0.109-75.844c25.711,0,49.008-0.562,72.219,0.625
						c3.312,0.172,8.766,8.781,8.852,13.562c0.727,40.078,0.18,80.188,0.555,120.281c0.164,17.258-11.758,14.719-22.234,14.719
						c-114.57,0.055-229.141,0.031-343.711,0.031c-12.891,0-25.812-0.57-38.664,0.141c-12.828,0.719-17.445-4.281-18.055-17.25
						c-1.953-41.953-2.398-42.094-45.543-41.844c-19.988,0.109-44.598-5.727-58.457,3.766
						C1096.352,579.828,1099.25,606.891,1095.828,626.891z"/>
					<path id="path26" fill="#1193D6" d="M2156.562,721.867c-42.234,48.723-83.297,96.27-124.547,143.656
						c-123.047,141.336-246.375,282.418-368.859,424.246c-10.969,12.699-22.281,15.25-37.234,15.23
						c-218.352-0.23-436.711-0.059-655.062-0.34c-17.797-0.031-32.07,1-43.258,19.191c-10.801,17.559-31.109,15.148-45.797,4.797
						c-27.895-19.656-57.816-24.559-91.145-24.25c-122.41,1.121-244.84,0.633-367.258,0.203c-14.641-0.051-29.27-3.48-43.91-5.293
						c-2.098-0.258-4.691-1.129-6.277-0.27c-33.871,18.301-69.285,34.512-100.324,56.801c-8.371,6.02-5.379,30.879-3.191,46.469
						c0.562,3.992,17.945,7.98,27.605,7.992c474.652,0.391,949.304,0.25,1423.961,0.68c18.078,0.02,30.5-5.172,42.414-18.98
						c125.727-145.672,252.023-290.859,378.25-436.102c62.883-72.355,125.672-144.789,189.164-216.602
						c11.836-13.395,11.969-22.031-0.188-35.89c-129.234-147.375-257.797-295.359-386.445-443.266
						c-60.562-69.625-121.133-139.266-181.148-209.375c-11.125-13-22.938-19.016-40.453-19
						c-476.094,0.383-952.168,0.297-1428.254,0.336c-26.836,0-24.926,1.32-28.414,27.805c-5.918,44.914,21.164,70.969,50.379,95.5
						c18.559,15.578,40.32,27.359,65.727,44.195c1.266-25,2.109-41.703,3.059-60.477c10.305,0,18.746,0,27.191,0
						c96.648,0,193.312-0.984,289.934,0.664c26.309,0.445,44.734-8.188,61.84-26.57c24.902-26.75,43.469-24.844,62.508,6.5
						c9.512,15.656,21.574,19.766,38.984,19.734c253.43-0.453,506.859-0.156,760.289-0.672c17.273-0.031,28.914,4.875,40.359,18.094
						c141.43,163.328,283.5,326.094,425.305,489.078C2113.265,670.672,2134.312,695.781,2156.562,721.867"/>
					<path id="path28" fill="none" stroke="#100F0D" stroke-width="10" d="M2156.562,721.867
						c-42.234,48.723-83.297,96.27-124.547,143.656c-123.047,141.336-246.375,282.418-368.859,424.246
						c-10.969,12.699-22.281,15.25-37.234,15.23c-218.352-0.23-436.711-0.059-655.062-0.34c-17.797-0.031-32.07,1-43.258,19.191
						c-10.801,17.559-31.109,15.148-45.797,4.797c-27.895-19.656-57.816-24.559-91.145-24.25
						c-122.41,1.121-244.84,0.633-367.258,0.203c-14.641-0.051-29.27-3.48-43.91-5.293c-2.098-0.258-4.691-1.129-6.277-0.27
						c-33.871,18.301-69.285,34.512-100.324,56.801c-8.371,6.02-5.379,30.879-3.191,46.469c0.562,3.992,17.945,7.98,27.605,7.992
						c474.652,0.391,949.304,0.25,1423.961,0.68c18.078,0.02,30.5-5.172,42.414-18.98
						c125.727-145.672,252.023-290.859,378.25-436.102c62.883-72.355,125.672-144.789,189.164-216.602
						c11.836-13.395,11.969-22.031-0.188-35.89c-129.234-147.375-257.797-295.359-386.445-443.266
						c-60.562-69.625-121.133-139.266-181.148-209.375c-11.125-13-22.938-19.016-40.453-19
						c-476.094,0.383-952.168,0.297-1428.254,0.336c-26.836,0-24.926,1.32-28.414,27.805c-5.918,44.914,21.164,70.969,50.379,95.5
						c18.559,15.578,40.32,27.359,65.727,44.195c1.266-25,2.109-41.703,3.059-60.477c10.305,0,18.746,0,27.191,0
						c96.648,0,193.312-0.984,289.934,0.664c26.309,0.445,44.734-8.188,61.84-26.57c24.902-26.75,43.469-24.844,62.508,6.5
						c9.512,15.656,21.574,19.766,38.984,19.734c253.43-0.453,506.859-0.156,760.289-0.672c17.273-0.031,28.914,4.875,40.359,18.094
						c141.43,163.328,283.5,326.094,425.305,489.078C2113.265,670.672,2134.312,695.781,2156.562,721.867L2156.562,721.867z"/>
					<path id="path30" fill="#1193D6" d="M269.203,1208.289c9.148-6.09,14.664-9.898,20.305-13.5
						c25.809-16.488,51.195-33.711,77.699-48.988c11.195-6.461,16.812-13,17.105-26.371c0.672-30.258,0.617-58.379-23.672-82.938
						c-11.391-11.523-15.488-31.883-19.023-49.043c-2.953-14.328-9.215-21.137-22.754-23.949c-9.746-2.027-19.406-5.008-28.672-8.66
						c-16.805-6.625-23.699-1.754-23.527,16.535c0.48,51.426,0.137,102.855,0.121,154.297c-0.004,19.277-0.164,38.57,0.098,57.859
						C266.973,1190.289,268.109,1197.051,269.203,1208.289"/>
					<path id="path32" fill="none" stroke="#100F0D" stroke-width="10" d="M269.203,1208.289c9.148-6.09,14.664-9.898,20.305-13.5
						c25.809-16.488,51.195-33.711,77.699-48.988c11.195-6.461,16.812-13,17.105-26.371c0.672-30.258,0.617-58.379-23.672-82.938
						c-11.391-11.523-15.488-31.883-19.023-49.043c-2.953-14.328-9.215-21.137-22.754-23.949c-9.746-2.027-19.406-5.008-28.672-8.66
						c-16.805-6.625-23.699-1.754-23.527,16.535c0.48,51.426,0.137,102.855,0.121,154.297c-0.004,19.277-0.164,38.57,0.098,57.859
						C266.973,1190.289,268.109,1197.051,269.203,1208.289z"/>
					<path id="path34" fill="#1193D6" d="M268.602,376.516c-0.605,6.781-1.723,13.578-1.734,20.359
						c-0.125,74.344-0.141,148.672-0.027,223c0.031,21.594,11.992,37.078,27.324,36.125c19.625-1.227,41.043-20.859,40.773-37.984
						c-0.699-44.281-0.266-88.656-2.988-132.828c-2.762-44.781-27.254-79.266-56.258-110.609
						C273.328,375.219,270.965,375.859,268.602,376.516"/>
					<path id="path36" fill="none" stroke="#100F0D" stroke-width="10" d="M268.602,376.516c-0.605,6.781-1.723,13.578-1.734,20.359
						c-0.125,74.344-0.141,148.672-0.027,223c0.031,21.594,11.992,37.078,27.324,36.125c19.625-1.227,41.043-20.859,40.773-37.984
						c-0.699-44.281-0.266-88.656-2.988-132.828c-2.762-44.781-27.254-79.266-56.258-110.609
						C273.328,375.219,270.965,375.859,268.602,376.516z"/>
					<path id="path38" fill="#1193D6" d="M268.688,790.054c5.055,18.66,44.816,40.672,57.223,35.488
						c2.602-1.086,5.812-5.082,5.613-7.473c-0.305-3.625-2.594-9.207-5.352-10.164C308.402,801.742,290.277,796.613,268.688,790.054
						"/>
					<path id="path40" fill="none" stroke="#100F0D" stroke-width="10" d="M268.688,790.054
						c5.055,18.66,44.816,40.672,57.223,35.488c2.602-1.086,5.812-5.082,5.613-7.473c-0.305-3.625-2.594-9.207-5.352-10.164
						C308.402,801.742,290.277,796.613,268.688,790.054L268.688,790.054z"/>
					<path id="path42" fill="#1193D6" d="M42.551,110.281H31.176c-2.074,0-3.695-0.047-4.867-0.125s-2.426-0.281-3.766-0.617
						c-1.336-0.32-2.344-0.828-3.027-1.508c-0.68-0.68-1.363-1.578-2.043-2.703c-0.684-1.109-1.16-2.562-1.434-4.344
						c-0.273-1.766-0.504-3.836-0.695-6.219c-0.191-2.359-0.289-5.219-0.289-8.531V58.648h46.07v28.562
						c0,4.195-0.219,7.664-0.656,10.391c-0.434,2.727-1.047,4.945-1.84,6.664c-0.789,1.719-1.988,3.016-3.602,3.891
						c-1.605,0.875-3.324,1.445-5.152,1.719S45.605,110.281,42.551,110.281z M36.086,126.648c10.418,0,18.152-1.969,23.195-5.883
						c5.051-3.938,8.145-9.414,9.289-16.453c2.129,10.469,8.785,16.688,19.969,18.648l35.922,6.305v-17.75
						c-2.512-0.445-6.152-0.945-10.926-1.516s-8.809-1.109-12.109-1.602s-6.805-1.148-10.516-1.961s-6.82-1.898-9.328-3.227
						c-2.508-1.336-4.363-2.945-5.562-4.789c-1.258-2.953-1.883-7.781-1.883-14.492V58.648h50.324V42.125H2.535v37.227
						c0,3.93,0.043,7.273,0.125,10.023s0.258,5.656,0.531,8.719c0.273,3.047,0.656,5.617,1.145,7.688
						c0.492,2.078,1.148,4.188,1.965,6.344s1.828,3.922,3.027,5.312c1.199,1.406,2.633,2.719,4.297,3.969
						c1.664,1.266,3.574,2.242,5.727,2.953c2.156,0.711,4.625,1.266,7.406,1.68S32.648,126.648,36.086,126.648"/>
					<path id="path44" fill="#1193D6" d="M70.863,163.219v40.594c-6.984-0.109-13.367-0.383-19.148-0.812
						c-3.328-0.219-5.551-1.656-6.668-4.297c-1.117-2.656-1.68-7.492-1.68-14.531c0-7.797,0.438-12.734,1.312-14.812
						c0.27-0.922,0.75-1.734,1.43-2.406c0.684-0.688,1.652-1.242,2.906-1.688c1.254-0.422,2.426-0.766,3.52-1.016
						c1.09-0.25,2.605-0.438,4.539-0.57c1.938-0.141,3.438-0.242,4.5-0.289c1.066-0.062,2.688-0.102,4.871-0.125
						C68.625,163.234,70.098,163.219,70.863,163.219z M78.309,219.93c0.656-6.539,1.035-10.609,1.145-12.195v-44.594
						c7.91,0.062,16.586,0.281,26.023,0.656c3.656,0.273,6.07,1.844,7.242,4.703c1.172,2.875,1.758,8.453,1.758,16.734
						c0,3.117-0.121,5.781-0.371,8.031c-0.242,2.219-0.676,4.047-1.309,5.438c-0.625,1.391-1.223,2.477-1.801,3.266
						c-0.57,0.797-1.473,1.383-2.695,1.766c-1.23,0.375-2.266,0.625-3.109,0.727c-0.848,0.109-2.129,0.219-3.848,0.328
						s-3.125,0.25-4.215,0.414l2.293,12.516c3.816-0.094,7.051-0.375,9.695-0.82c2.648-0.43,4.977-1.164,6.996-2.195
						c2.02-1.047,3.613-2.273,4.789-3.688c1.172-1.422,2.137-3.328,2.902-5.727s1.266-5.055,1.516-7.938
						c0.242-2.891,0.367-6.461,0.367-10.727c0-5.445-0.316-10.195-0.941-14.234s-1.406-7.492-2.332-10.352
						c-0.926-2.867-2.441-5.219-4.543-7.078c-2.098-1.852-4.102-3.312-6.012-4.383c-1.91-1.062-4.719-1.844-8.43-2.328
						s-7.078-0.797-10.105-0.938s-7.215-0.203-12.559-0.203c-7.531,0-13.395,0.094-17.594,0.281
						c-4.203,0.188-8.414,0.734-12.641,1.594c-4.23,0.875-7.301,2.047-9.207,3.531c-1.91,1.469-3.684,3.641-5.32,6.531
						s-2.684,6.312-3.148,10.234c-0.465,3.93-0.699,8.922-0.699,14.984c0,4.195,0.125,7.828,0.371,10.875
						c0.242,3.062,0.75,5.859,1.512,8.43c0.766,2.555,1.637,4.664,2.621,6.336c0.98,1.664,2.426,3.133,4.336,4.422
						c1.91,1.281,3.887,2.266,5.934,2.938c2.043,0.688,4.758,1.25,8.141,1.688s6.805,0.703,10.27,0.812S73.125,219.93,78.309,219.93
						"/>
					<path id="path46" fill="#1193D6" d="M99.586,306.672c5.234,0,9.531-0.57,12.887-1.719c3.355-1.141,6.012-3.047,7.977-5.688
						s3.328-5.867,4.09-9.656c0.766-3.797,1.148-8.578,1.148-14.359c0-3.375-0.027-6.102-0.082-8.141
						c-0.055-2.047-0.191-4.406-0.41-7.078c-0.219-2.68-0.559-4.797-1.02-6.383c-0.465-1.586-1.094-3.289-1.887-5.117
						c-0.789-1.828-1.801-3.266-3.023-4.297c-1.23-1.031-2.688-2.023-4.379-2.945c-1.691-0.93-3.695-1.578-6.016-1.961
						c-2.316-0.391-4.949-0.578-7.895-0.578l-3.273,12.688c6.219,0.484,10.145,1.062,11.781,1.711
						c2.238,0.992,3.656,3.031,4.254,6.141c0.492,2.336,0.738,7.281,0.738,14.812c0,4.523-0.207,7.898-0.613,10.109
						c-0.41,2.211-1.188,3.688-2.332,4.461c-1.801,2.18-7.938,3.266-18.41,3.266c-1.582,0-2.934-0.328-4.055-0.977
						c-1.113-0.664-1.961-1.445-2.531-2.383c-0.578-0.922-1.066-2.219-1.473-3.875c-0.414-1.664-0.684-3.172-0.82-4.5
						c-0.137-1.344-0.312-3.102-0.531-5.281c-0.219-2.188-0.41-3.938-0.574-5.242c-0.438-3.977-0.859-7.219-1.27-9.727
						c-0.406-2.516-1.023-5.055-1.84-7.609c-0.816-2.578-1.828-4.578-3.027-6.023s-2.754-2.773-4.664-3.969
						c-1.91-1.203-4.199-2.039-6.875-2.539c-2.672-0.484-5.863-0.734-9.574-0.734c-3.926,0-7.254,0.406-9.98,1.234
						c-2.73,0.812-4.992,2.008-6.793,3.594c-1.801,1.578-3.203,3.75-4.215,6.5c-1.008,2.766-1.715,5.859-2.129,9.297
						c-0.406,3.438-0.613,7.641-0.613,12.594c0,3.109,0.043,5.664,0.125,7.664c0.082,1.977,0.273,4.164,0.574,6.539
						s0.723,4.289,1.266,5.766c0.547,1.469,1.309,2.969,2.293,4.453c0.98,1.516,2.195,2.656,3.641,3.492
						c1.445,0.805,3.203,1.477,5.277,2c2.074,0.508,4.445,0.773,7.121,0.773l3.352-10.969c-2.125-0.203-3.801-0.414-5.031-0.609
						c-1.227-0.188-2.359-0.617-3.395-1.266c-1.039-0.656-1.773-1.344-2.211-2.039c-0.438-0.727-0.816-1.93-1.145-3.648
						s-0.52-3.453-0.574-5.188c-0.055-1.75-0.082-4.266-0.082-7.531c0-6.984,0.695-11.719,2.09-14.203
						c1.387-2.484,3.668-3.719,6.832-3.719h8.344c3.602,0,5.879,1.078,6.832,3.227c0.957,2.148,2.035,7.93,3.234,17.312
						c0.164,0.977,0.273,1.719,0.328,2.211c0.434,3.758,0.844,6.734,1.227,8.953s0.887,4.547,1.516,7
						c0.625,2.453,1.363,4.312,2.207,5.609c0.848,1.273,1.922,2.555,3.234,3.836c1.309,1.289,2.918,2.219,4.824,2.789
						c1.91,0.57,4.121,1.031,6.629,1.391C93.176,306.484,96.148,306.672,99.586,306.672"/>
					<path id="path48" fill="#1193D6" d="M124.461,343.734v-16.109H34.695v16.109H124.461z M0,343.734h14.156v-16.109H0V343.734"/>
					<path id="path50" fill="#1193D6" d="M99.586,434.562c5.234,0,9.531-0.57,12.887-1.719c3.355-1.141,6.012-3.039,7.977-5.688
						c1.965-2.641,3.328-5.859,4.09-9.648c0.766-3.797,1.148-8.586,1.148-14.367c0-3.375-0.027-6.094-0.082-8.141
						c-0.055-2.039-0.191-4.398-0.41-7.07c-0.219-2.68-0.559-4.805-1.02-6.391c-0.465-1.578-1.094-3.289-1.887-5.109
						c-0.789-1.828-1.801-3.258-3.023-4.305c-1.23-1.031-2.688-2.016-4.379-2.938s-3.695-1.586-6.016-1.969
						c-2.316-0.375-4.949-0.57-7.895-0.57l-3.273,12.68c6.219,0.492,10.145,1.07,11.781,1.719c2.238,0.984,3.656,3.031,4.254,6.141
						c0.492,2.344,0.738,7.281,0.738,14.812c0,4.516-0.207,7.891-0.613,10.109c-0.41,2.203-1.188,3.688-2.332,4.453
						c-1.801,2.18-7.938,3.273-18.41,3.273c-1.582,0-2.934-0.328-4.055-0.984c-1.113-0.648-1.961-1.445-2.531-2.367
						c-0.578-0.938-1.066-2.219-1.473-3.883c-0.414-1.672-0.684-3.172-0.82-4.508c-0.137-1.328-0.312-3.094-0.531-5.281
						s-0.41-3.922-0.574-5.234c-0.438-3.977-0.859-7.227-1.27-9.734c-0.406-2.516-1.023-5.047-1.84-7.609s-1.828-4.578-3.027-6.016
						c-1.199-1.453-2.754-2.766-4.664-3.969s-4.199-2.047-6.875-2.539c-2.672-0.492-5.863-0.727-9.574-0.727
						c-3.926,0-7.254,0.406-9.98,1.219c-2.73,0.812-4.992,2.016-6.793,3.594c-1.801,1.594-3.203,3.766-4.215,6.516
						c-1.008,2.75-1.715,5.844-2.129,9.289c-0.406,3.43-0.613,7.633-0.613,12.602c0,3.109,0.043,5.656,0.125,7.648
						s0.273,4.164,0.574,6.547c0.301,2.367,0.723,4.289,1.266,5.766c0.547,1.477,1.309,2.961,2.293,4.461
						c0.98,1.5,2.195,2.656,3.641,3.477s3.203,1.484,5.277,2.008c2.074,0.516,4.445,0.773,7.121,0.773l3.352-10.961
						c-2.125-0.219-3.801-0.422-5.031-0.617c-1.227-0.195-2.359-0.617-3.395-1.266c-1.039-0.656-1.773-1.336-2.211-2.047
						s-0.816-1.922-1.145-3.641c-0.328-1.727-0.52-3.453-0.574-5.203c-0.055-1.742-0.082-4.25-0.082-7.523
						c0-6.984,0.695-11.719,2.09-14.195c1.387-2.477,3.668-3.719,6.832-3.719h8.344c3.602,0,5.879,1.07,6.832,3.227
						c0.957,2.156,2.035,7.922,3.234,17.297c0.164,1,0.273,1.727,0.328,2.219c0.434,3.766,0.844,6.75,1.227,8.953
						c0.383,2.219,0.887,4.547,1.516,7c0.625,2.453,1.363,4.328,2.207,5.609c0.848,1.281,1.922,2.562,3.234,3.844
						c1.309,1.281,2.918,2.211,4.824,2.781c1.91,0.578,4.121,1.039,6.629,1.391C93.176,434.391,96.148,434.562,99.586,434.562"/>
					<path id="path52" fill="#1193D6" d="M113.086,490.203l11.453-0.328c0.766-4.578,1.148-8.719,1.148-12.438
						c0-3.969-0.438-7.266-1.309-9.852c-0.875-2.594-2.266-4.547-4.176-5.852c-1.906-1.312-4.02-2.211-6.34-2.703
						c-2.316-0.484-5.277-0.734-8.879-0.734H43.859v-12.188h-9.164v12.188H9.164l-1.309,16.039h26.84v16.523h9.164v-16.523h55.645
						c5.891,0,9.707,0.289,11.453,0.852c1.746,0.578,2.621,2.141,2.621,4.711C113.578,482.406,113.414,485.844,113.086,490.203"/>
					<path id="path54" fill="#1193D6" d="M98.766,561.078H84.773c0-10.758,0.41-19.016,1.227-24.797
						c0.82-5.781,1.953-9.648,3.395-11.578c1.449-1.938,3.48-2.906,6.098-2.906c0.109,0,0.273,0,0.492,0
						c8.293,0,13.445,0.68,15.465,2.047c2.02,1.359,3.027,5.531,3.027,12.516c0,5.953-0.707,10.773-2.129,14.484
						c-1.418,3.703-3.23,6.281-5.441,7.734C104.699,560.016,101.984,560.859,98.766,561.078z M124.461,577.188v-12.766
						l-12.848-2.609c5.617-1.641,9.367-4.594,11.25-8.883s2.824-10.539,2.824-18.781c0-5.453-0.531-9.93-1.598-13.414
						c-1.062-3.5-2.848-6.281-5.359-8.352c-2.508-2.07-5.574-3.508-9.207-4.297c-3.625-0.789-8.301-1.188-14.031-1.188
						c-2.562,0-4.855,0.453-6.871,1.352c-2.02,0.906-3.738,2.125-5.156,3.688c-1.418,1.547-2.648,3.625-3.684,6.219
						c-1.035,2.586-1.855,5.281-2.453,8.055c-0.602,2.789-1.078,6.148-1.434,10.109c-0.352,3.953-0.586,7.812-0.695,11.578
						c-0.109,3.758-0.164,8.156-0.164,13.18H50.734c-2.785,0-4.707-1.312-5.77-3.938c-1.066-2.609-1.598-7.281-1.598-13.984
						c0-4.695,0.109-8.219,0.328-10.562s0.859-4.125,1.926-5.359c1.059-1.227,2.113-1.938,3.148-2.125s2.973-0.312,5.809-0.367
						c1.039-0.055,1.855-0.086,2.457-0.086l-0.492-12.516c-0.871-0.109-2.156-0.164-3.848-0.164c-3.652,0-6.75,0.523-9.285,1.594
						c-2.535,1.062-4.527,2.445-5.973,4.133s-2.578,4.008-3.398,6.953c-0.816,2.953-1.336,5.867-1.555,8.75
						c-0.219,2.906-0.328,6.5-0.328,10.812c0,6.539,0.508,11.859,1.516,15.953c1.012,4.094,2.824,7.453,5.441,10.062
						c2.617,2.625,5.961,4.438,10.023,5.438c4.066,1.016,9.371,1.516,15.918,1.516H124.461"/>
					<path id="path56" fill="#1193D6" d="M124.461,673.016v-16.125H70.125c-3.488,0-6.285-0.016-8.387-0.047
						c-2.098-0.023-4.215-0.125-6.34-0.32c-2.129-0.195-3.723-0.398-4.789-0.617c-1.062-0.219-2.129-0.609-3.188-1.188
						c-1.066-0.562-1.789-1.156-2.172-1.75c-0.383-0.609-0.75-1.477-1.102-2.625c-0.355-1.141-0.562-2.289-0.617-3.438
						c-0.055-1.141-0.082-2.672-0.082-4.578c0-4.148,0.234-7.68,0.699-10.594c0.461-2.922,1.102-5.312,1.922-7.164
						c0.816-1.852,1.961-3.289,3.434-4.297s3.07-1.703,4.789-2.086c1.719-0.375,3.832-0.578,6.34-0.578
						c1.418,0,3.887,0.094,7.406,0.25c3.52,0.164,6.371,0.25,8.551,0.25h47.871v-16.125H34.695v14.734l10.062,1.547
						c-4.473,1.422-7.691,4.562-9.652,9.406c-1.965,4.859-2.949,10.641-2.949,17.359c0,3.156,0.191,5.969,0.574,8.422
						s1.023,4.641,1.926,6.547c0.898,1.906,1.922,3.562,3.066,4.953s2.66,2.562,4.539,3.516c1.887,0.953,3.809,1.734,5.77,2.328
						c1.965,0.609,4.422,1.07,7.367,1.391c2.945,0.328,5.879,0.547,8.793,0.656c2.922,0.109,6.398,0.172,10.434,0.172H124.461"/>
					<path id="path58" fill="#1193D6" d="M60.551,765.886l2.211-13.258l-11.375-1.719c-2.617-0.434-4.281-0.953-4.992-1.555
						c-1.637-1.418-2.562-5.344-2.781-11.781c-0.055-1.527-0.082-3.219-0.082-5.074c0-7.418,0.41-12.273,1.227-14.566
						c0.438-2.508,2.922-4.336,7.449-5.48s10.062-1.719,16.609-1.719l14.156,0.082c1.965,0,4.664,0,8.102,0c4.473,0,7.625,0,9.449,0
						c1.832,0,3.902,0.246,6.219,0.734c2.32,0.492,3.766,1.051,4.34,1.676c0.57,0.629,1.238,1.816,2.004,3.562
						c0.762,1.746,1.172,3.613,1.227,5.605c0.055,1.988,0.082,4.867,0.082,8.633c0,2.945-0.109,5.496-0.328,7.652
						c-0.219,2.152-0.477,3.98-0.777,5.48c-0.297,1.5-0.816,2.727-1.551,3.684c-0.742,0.953-1.406,1.688-2.008,2.207
						c-0.598,0.52-1.539,0.914-2.824,1.188c-1.277,0.273-2.387,0.449-3.312,0.531c-0.93,0.082-2.332,0.176-4.215,0.289
						c-1.879,0.109-3.477,0.242-4.785,0.406l2.289,13.422c4.258-0.328,7.664-0.695,10.23-1.105c2.562-0.406,5.043-1.094,7.445-2.047
						c2.402-0.957,4.215-2.156,5.441-3.598c1.23-1.449,2.332-3.438,3.312-5.977c0.984-2.535,1.625-5.48,1.922-8.836
						c0.301-3.355,0.453-7.543,0.453-12.562c0-3.598-0.109-6.828-0.328-9.695c-0.219-2.863-0.668-5.469-1.348-7.812
						c-0.684-2.348-1.336-4.395-1.965-6.141c-0.629-1.742-1.734-3.285-3.316-4.621c-1.582-1.336-2.945-2.453-4.09-3.352
						c-1.145-0.906-3-1.656-5.566-2.25c-2.562-0.602-4.746-1.062-6.543-1.391c-1.801-0.328-4.543-0.578-8.227-0.742
						c-3.68-0.164-6.805-0.258-9.367-0.289c-2.566-0.023-6.273-0.031-11.129-0.031c-4.363,0-8.145,0.078-11.332,0.234
						c-3.195,0.172-6.246,0.5-9.164,0.984c-2.918,0.492-5.348,1.133-7.285,1.922c-1.934,0.797-3.75,1.859-5.441,3.195
						s-3.027,2.867-4.008,4.582c-0.984,1.719-1.828,3.848-2.539,6.383c-0.707,2.539-1.199,5.32-1.473,8.348s-0.41,6.559-0.41,10.598
						c0,5.18,0.262,9.531,0.777,13.051c0.52,3.516,1.379,6.641,2.578,9.367c1.203,2.73,2.906,4.883,5.113,6.465
						c2.211,1.582,4.91,2.809,8.105,3.684C51.918,765.121,55.859,765.668,60.551,765.886"/>
					<path id="path60" fill="#1193D6" d="M70.863,799.597v40.586c-6.984-0.109-13.367-0.379-19.148-0.816
						c-3.328-0.219-5.551-1.652-6.668-4.297s-1.68-7.488-1.68-14.523c0-7.801,0.438-12.738,1.312-14.812
						c0.27-0.926,0.75-1.73,1.43-2.41c0.684-0.684,1.652-1.242,2.906-1.68s2.426-0.777,3.52-1.023
						c1.09-0.242,2.605-0.438,4.539-0.57c1.938-0.141,3.438-0.234,4.5-0.289c1.066-0.055,2.688-0.094,4.871-0.125
						C68.625,799.609,70.098,799.597,70.863,799.597z M78.309,856.304c0.656-6.547,1.035-10.609,1.145-12.191v-44.598
						c7.91,0.055,16.586,0.273,26.023,0.656c3.656,0.273,6.07,1.84,7.242,4.703c1.172,2.867,1.758,8.441,1.758,16.734
						c0,3.109-0.121,5.781-0.371,8.02c-0.242,2.238-0.676,4.051-1.309,5.441c-0.625,1.391-1.223,2.48-1.801,3.273
						c-0.57,0.789-1.473,1.379-2.695,1.758c-1.23,0.383-2.266,0.629-3.109,0.738c-0.848,0.109-2.129,0.219-3.848,0.328
						s-3.125,0.246-4.215,0.406l2.293,12.523c3.816-0.113,7.051-0.383,9.695-0.82c2.648-0.438,4.977-1.172,6.996-2.211
						c2.02-1.035,3.613-2.262,4.789-3.68c1.172-1.418,2.137-3.328,2.902-5.73c0.766-2.398,1.266-5.043,1.516-7.938
						c0.242-2.891,0.367-6.461,0.367-10.719c0-5.453-0.316-10.199-0.941-14.238c-0.625-4.035-1.406-7.488-2.332-10.348
						c-0.926-2.867-2.441-5.227-4.543-7.078c-2.098-1.855-4.102-3.316-6.012-4.379c-1.91-1.066-4.719-1.844-8.43-2.332
						c-3.711-0.492-7.078-0.809-10.105-0.941c-3.027-0.137-7.215-0.207-12.559-0.207c-7.531,0-13.395,0.098-17.594,0.289
						c-4.203,0.191-8.414,0.723-12.641,1.594c-4.23,0.875-7.301,2.047-9.207,3.52c-1.91,1.473-3.684,3.656-5.32,6.547
						s-2.684,6.301-3.148,10.227c-0.465,3.93-0.699,8.922-0.699,14.977c0,4.199,0.125,7.828,0.371,10.883
						c0.242,3.055,0.75,5.863,1.512,8.426c0.766,2.566,1.637,4.68,2.621,6.344c0.98,1.664,2.426,3.137,4.336,4.418
						s3.887,2.266,5.934,2.945c2.043,0.68,4.758,1.242,8.141,1.68c3.383,0.434,6.805,0.707,10.27,0.816
						S73.125,856.304,78.309,856.304"/>
					<path id="path62" fill="#1193D6" d="M53.023,985.922c-5.02,0-8.633-0.016-10.84-0.043c-2.211-0.027-4.98-0.219-8.309-0.57
						c-3.324-0.359-5.602-0.848-6.832-1.473c-1.227-0.629-2.793-1.625-4.703-2.988s-3.121-2.961-3.645-4.789
						c-0.516-1.828-1.168-4.227-1.961-7.199c-0.789-2.973-1.254-6.289-1.391-9.941c-0.137-3.656-0.207-8.102-0.207-13.34v-17.184
						h96.805v19.641c0,4.691-0.043,8.344-0.125,10.965c-0.078,2.617-0.312,5.453-0.695,8.508s-0.887,5.305-1.512,6.75
						c-0.629,1.445-1.609,3.016-2.945,4.707s-2.867,2.863-4.582,3.52c-1.723,0.652-3.984,1.309-6.797,1.961
						c-2.805,0.656-5.902,1.066-9.285,1.23s-7.473,0.246-12.273,0.246H53.023z M52.777,1002.371c7.477,0,13.625-0.043,18.453-0.129
						c4.828-0.082,9.766-0.344,14.812-0.773c5.047-0.438,9.039-0.898,11.988-1.398c2.945-0.484,5.957-1.398,9.039-2.734
						c3.086-1.34,5.375-2.648,6.875-3.93s3.039-3.23,4.621-5.852c1.582-2.617,2.648-5.18,3.191-7.691
						c0.547-2.508,1.094-5.906,1.637-10.188c0.547-4.281,0.859-8.484,0.945-12.602c0.078-4.117,0.121-9.34,0.121-15.668v-29.621
						H2.535v42.223c0,6.871,0.285,12.684,0.863,17.43c0.57,4.746,1.637,8.984,3.188,12.723c1.559,3.734,3.508,6.723,5.852,8.961
						c2.348,2.234,5.469,4.074,9.367,5.523c3.902,1.445,8.281,2.426,13.137,2.945S45.742,1002.371,52.777,1002.371"/>
					<path id="path64" fill="#1193D6" d="M70.863,1039.429v40.59c-6.984-0.109-13.367-0.379-19.148-0.82
						c-3.328-0.219-5.551-1.648-6.668-4.289c-1.117-2.652-1.68-7.488-1.68-14.531c0-7.801,0.438-12.738,1.312-14.809
						c0.27-0.93,0.75-1.73,1.43-2.41c0.684-0.68,1.652-1.238,2.906-1.68s2.426-0.781,3.52-1.02c1.09-0.25,2.605-0.441,4.539-0.57
						c1.938-0.141,3.438-0.242,4.5-0.289c1.066-0.062,2.688-0.102,4.871-0.121C68.625,1039.449,70.098,1039.429,70.863,1039.429
						L70.863,1039.429z M78.309,1096.14c0.656-6.551,1.035-10.609,1.145-12.191v-44.598c7.91,0.059,16.586,0.27,26.023,0.66
						c3.656,0.27,6.07,1.84,7.242,4.699c1.172,2.867,1.758,8.449,1.758,16.738c0,3.102-0.121,5.781-0.371,8.012
						c-0.242,2.238-0.676,4.059-1.309,5.449c-0.625,1.391-1.223,2.48-1.801,3.27c-0.57,0.789-1.473,1.379-2.695,1.762
						c-1.23,0.379-2.266,0.629-3.109,0.738c-0.848,0.109-2.129,0.211-3.848,0.32s-3.125,0.25-4.215,0.41l2.293,12.52
						c3.816-0.109,7.051-0.379,9.695-0.82c2.648-0.43,4.977-1.168,6.996-2.211c2.02-1.027,3.613-2.258,4.789-3.68
						c1.172-1.418,2.137-3.328,2.902-5.719c0.766-2.41,1.266-5.051,1.516-7.941c0.242-2.887,0.367-6.469,0.367-10.719
						c0-5.461-0.316-10.199-0.941-14.238c-0.625-4.043-1.406-7.492-2.332-10.352c-0.926-2.871-2.441-5.23-4.543-7.078
						c-2.098-1.852-4.102-3.312-6.012-4.383c-1.91-1.059-4.719-1.84-8.43-2.328c-3.711-0.492-7.078-0.801-10.105-0.941
						s-7.215-0.199-12.559-0.199c-7.531,0-13.395,0.09-17.594,0.281c-4.203,0.188-8.414,0.719-12.641,1.598
						c-4.23,0.871-7.301,2.043-9.207,3.512c-1.91,1.48-3.684,3.66-5.32,6.551c-1.637,2.887-2.684,6.301-3.148,10.23
						s-0.699,8.918-0.699,14.969c0,4.199,0.125,7.828,0.371,10.891c0.242,3.047,0.75,5.859,1.512,8.43
						c0.766,2.559,1.637,4.668,2.621,6.34c0.98,1.66,2.426,3.129,4.336,4.418c1.91,1.281,3.887,2.262,5.934,2.941
						c2.043,0.68,4.758,1.238,8.141,1.68s6.805,0.711,10.27,0.82S73.125,1096.14,78.309,1096.14"/>
					<path id="path66" fill="#1193D6" d="M113.086,1153.422l11.453-0.332c0.766-4.578,1.148-8.73,1.148-12.43
						c0-3.988-0.438-7.27-1.309-9.859c-0.875-2.602-2.266-4.551-4.176-5.852c-1.906-1.309-4.02-2.219-6.34-2.699
						c-2.316-0.5-5.277-0.738-8.879-0.738H43.859v-12.191h-9.164v12.191H9.164l-1.309,16.039h26.84v16.52h9.164v-16.52h55.645
						c5.891,0,9.707,0.289,11.453,0.848c1.746,0.582,2.621,2.152,2.621,4.711C113.578,1145.621,113.414,1149.051,113.086,1153.422"
						/>
					<path id="path68" fill="#1193D6" d="M32.648,1214.461l13.664-0.652c-0.27-2.078-0.406-4.039-0.406-5.887
						c0-3.871,0.379-7.012,1.145-9.414c0.766-2.398,2.074-4.219,3.926-5.438c1.855-1.23,3.973-2.051,6.344-2.461
						c2.375-0.41,5.551-0.609,9.531-0.609c2.238,0,5.512,0.09,9.82,0.281c4.309,0.188,7.391,0.289,9.246,0.289h38.543v-16.121
						H34.695v14.652l10.062,1.629c-3.926,1.699-6.965,4.262-9.121,7.699c-2.156,3.43-3.234,7.551-3.234,12.352
						C32.402,1211.98,32.484,1213.211,32.648,1214.461"/>
					<path id="path70" fill="#1193D6" d="M114.395,1267.078c-0.164,7.742-0.738,13.133-1.719,16.164
						c-0.98,3.027-2.918,4.539-5.809,4.539c-7.801,0.598-16.828,0.898-27.086,0.898c-3.383,0-8.223-0.129-14.523-0.41
						c-6.301-0.27-10.98-0.41-14.035-0.41c-0.926,0-1.773-0.148-2.535-0.449c-0.766-0.301-1.402-0.789-1.922-1.469
						c-0.52-0.684-0.969-1.371-1.352-2.051s-0.684-1.633-0.898-2.859c-0.219-1.23-0.41-2.262-0.574-3.109
						c-0.164-0.852-0.273-2.043-0.328-3.602c-0.055-1.551-0.082-2.75-0.082-3.602c0-0.84,0-2.09,0-3.719c0-1.641,0-2.879,0-3.73
						c0-0.84,0.027-2.039,0.082-3.59c0.055-1.559,0.164-2.758,0.328-3.609c0.164-0.84,0.355-1.879,0.574-3.109
						c0.215-1.23,0.516-2.18,0.898-2.859s0.832-1.371,1.352-2.051s1.156-1.172,1.922-1.473c0.762-0.297,1.609-0.449,2.535-0.449
						c3.055,0,7.734-0.129,14.035-0.41c6.301-0.27,11.141-0.41,14.523-0.41c10.258,0,19.285,0.301,27.086,0.902
						c2.891,0,4.871,1.598,5.93,4.789C113.863,1254.191,114.395,1259.551,114.395,1267.078z M125.688,1266.91
						c0-6.051-0.246-11.102-0.738-15.129c-0.488-4.043-1.566-7.523-3.23-10.441c-1.664-2.91-3.438-5.141-5.32-6.66
						c-1.879-1.531-4.852-2.73-8.918-3.609c-4.062-0.871-8.086-1.398-12.07-1.59c-3.98-0.191-9.52-0.289-16.609-0.289
						c-5.293,0-9.711,0.066-13.258,0.207c-3.547,0.133-7.023,0.453-10.43,0.941c-3.41,0.488-6.164,1.102-8.27,1.84
						c-2.098,0.73-4.09,1.801-5.969,3.191c-1.887,1.387-3.316,2.957-4.297,4.699c-0.984,1.75-1.844,3.969-2.578,6.68
						c-0.738,2.699-1.23,5.641-1.473,8.828c-0.246,3.191-0.371,7-0.371,11.422s0.125,8.219,0.371,11.41
						c0.242,3.199,0.734,6.141,1.473,8.84c0.734,2.699,1.594,4.922,2.578,6.672c0.98,1.738,2.41,3.309,4.297,4.699
						c1.879,1.398,3.871,2.457,5.969,3.188c2.105,0.742,4.859,1.352,8.27,1.852c3.406,0.488,6.883,0.801,10.43,0.941
						c3.547,0.129,7.965,0.199,13.258,0.199c7.09,0,12.629-0.09,16.609-0.281c3.984-0.199,8.008-0.73,12.07-1.602
						c4.066-0.867,7.051-2.09,8.961-3.637c1.91-1.562,3.68-3.801,5.316-6.711c1.637-2.922,2.703-6.402,3.191-10.43
						C125.441,1278.101,125.688,1273.019,125.688,1266.91"/>
					<path id="path72" fill="#1193D6" d="M124.461,1344.41v-16.121H34.695v16.121H124.461z M0,1344.41h14.156v-16.121H0V1344.41"/>
					<path id="path74" fill="#1193D6" d="M113.086,1405.781l11.453-0.332c0.766-4.578,1.148-8.73,1.148-12.438
						c0-3.98-0.438-7.27-1.309-9.863c-0.875-2.59-2.266-4.539-4.176-5.848c-1.906-1.309-4.02-2.211-6.34-2.699
						c-2.316-0.492-5.277-0.742-8.879-0.742H43.859v-12.188h-9.164v12.188H9.164l-1.309,16.039h26.84v16.531h9.164v-16.531h55.645
						c5.891,0,9.707,0.293,11.453,0.863c1.746,0.578,2.621,2.137,2.621,4.699C113.578,1397.98,113.414,1401.41,113.086,1405.781"/>
				</g>
			</g>
		</g>
	</g>
</g>
</svg>
