<?xml version="1.0" encoding="UTF-8" ?>
<!DOCTYPE svg PUBLIC "-//W3C//DTD SVG 1.1//EN" "http://www.w3.org/Graphics/SVG/1.1/DTD/svg11.dtd">
<svg width="1200pt" height="800pt" viewBox="0 0 1200 800" version="1.1" xmlns="http://www.w3.org/2000/svg">
<path fill="#ffd800" d=" M 0.00 0.00 L 1200.00 0.00 L 1200.00 800.00 L 0.00 800.00 L 0.00 0.00 Z" />
<path fill="#ffffff" d=" M 7.12 10.01 C 6.86 8.73 7.67 7.04 9.15 7.15 C 304.75 7.13 600.36 7.15 895.97 7.14 C 993.84 7.19 1091.71 7.04 1189.57 7.21 C 1189.88 7.52 1190.48 8.12 1190.79 8.43 C 1190.98 50.91 1190.75 93.40 1190.90 135.89 L 1189.99 135.86 C 1124.67 135.59 1059.34 135.82 994.02 135.75 C 762.35 135.75 530.68 135.75 299.01 135.75 C 202.01 135.82 105.00 135.59 8.01 135.86 L 7.10 135.89 C 7.18 93.93 7.15 51.97 7.12 10.01 Z" />
<path fill="#a5d6ef" d=" M 8.01 135.86 C 105.00 135.59 202.01 135.82 299.01 135.75 C 530.68 135.75 762.35 135.75 994.02 135.75 C 1059.34 135.82 1124.67 135.59 1189.99 135.86 C 1190.00 179.95 1190.00 224.05 1189.99 268.14 C 1136.34 268.41 1082.68 268.18 1029.02 268.25 C 722.68 268.25 416.34 268.25 110.00 268.25 C 76.00 268.18 42.00 268.41 8.01 268.14 C 8.00 224.05 8.00 179.95 8.01 135.86 Z" />
<path fill="#ffffff" d=" M 439.56 165.75 C 443.26 165.10 446.98 164.49 450.70 163.95 C 450.73 188.62 450.70 213.30 450.72 237.98 C 447.29 238.02 443.86 238.01 440.44 237.97 C 440.27 235.93 440.12 233.89 439.99 231.85 C 438.32 235.40 434.84 237.59 431.02 238.04 C 424.05 239.00 415.68 238.95 410.58 233.34 C 406.35 227.49 406.64 219.88 406.53 213.01 C 406.69 205.73 405.94 197.96 409.23 191.21 C 411.32 186.82 416.26 184.84 420.83 184.31 C 427.21 183.58 434.48 183.63 439.60 188.09 C 439.50 180.64 439.54 173.20 439.56 165.75 Z" />
<path fill="#ffffff" d=" M 1025.57 165.74 C 1029.26 165.10 1032.97 164.49 1036.70 163.95 C 1036.73 188.62 1036.70 213.30 1036.72 237.98 C 1033.28 238.02 1029.85 238.01 1026.43 237.96 C 1026.26 235.92 1026.12 233.87 1026.00 231.83 C 1024.31 235.37 1020.86 237.60 1017.01 238.05 C 1010.90 238.82 1003.99 239.02 998.75 235.27 C 995.05 232.84 993.79 228.21 993.09 224.09 C 992.26 216.78 992.46 209.38 992.73 202.05 C 993.09 196.62 994.09 190.22 998.99 186.96 C 1004.31 183.70 1010.93 183.66 1016.95 184.31 C 1020.17 184.59 1023.09 186.11 1025.60 188.09 C 1025.50 180.64 1025.54 173.19 1025.57 165.74 Z" />
<path fill="#ffffff" d=" M 291.01 166.01 C 294.74 165.99 298.48 165.99 302.21 166.01 C 302.24 169.00 302.24 171.99 302.21 174.99 C 298.48 175.01 294.74 175.01 291.01 174.99 C 290.99 172.00 290.99 169.00 291.01 166.01 Z" />
<path fill="#ffffff" d=" M 494.64 167.62 C 501.89 165.41 509.57 165.96 517.04 166.11 C 522.20 166.46 528.08 167.15 531.69 171.31 C 535.57 175.61 536.14 181.66 536.56 187.18 C 533.23 187.83 529.89 188.43 526.53 188.92 C 525.98 184.81 525.91 180.53 524.24 176.68 C 522.57 173.29 518.17 173.67 515.00 173.44 C 509.59 173.59 503.91 172.78 498.75 174.74 C 495.57 176.02 495.70 179.81 495.56 182.67 C 495.44 193.79 494.96 204.91 495.43 216.03 C 495.65 219.75 495.13 223.75 496.71 227.23 C 499.55 230.91 504.81 230.61 508.98 230.97 C 514.06 230.86 520.07 231.87 524.20 228.21 C 526.64 224.11 525.98 219.02 526.62 214.44 C 529.95 215.16 533.27 215.95 536.57 216.80 C 536.18 222.41 535.71 228.54 532.05 233.11 C 528.35 237.38 522.32 238.17 517.01 238.40 C 508.83 238.46 500.14 239.32 492.62 235.42 C 489.10 233.14 486.33 229.57 485.50 225.41 C 483.43 216.81 483.90 207.85 483.76 199.07 C 483.91 192.06 483.73 184.95 485.30 178.08 C 486.29 173.29 489.84 168.92 494.64 167.62 Z" />
<path fill="#ffffff" d=" M 550.80 167.22 C 554.52 166.63 558.25 166.03 561.98 165.45 C 562.00 172.90 562.04 180.35 561.95 187.80 C 563.74 186.33 565.68 184.88 568.06 184.59 C 574.32 183.55 580.99 183.70 586.97 185.99 C 591.37 187.67 593.70 192.36 593.63 196.90 C 593.83 210.59 593.65 224.28 593.71 237.98 C 589.99 238.01 586.28 238.01 582.56 237.99 C 582.60 224.63 582.36 211.27 582.76 197.92 C 582.93 195.68 582.30 192.91 579.80 192.28 C 574.87 191.05 569.45 190.99 564.62 192.67 C 562.40 193.44 562.61 196.04 562.41 197.94 C 561.67 211.28 562.13 224.64 561.99 237.99 C 558.25 238.01 554.52 238.01 550.79 237.98 C 550.77 214.40 550.74 190.81 550.80 167.22 Z" />
<path fill="#ffffff" d=" M 608.56 166.01 C 612.27 165.98 615.99 165.99 619.71 166.02 C 619.72 169.01 619.72 171.99 619.71 174.97 C 615.99 175.01 612.28 175.02 608.57 174.99 C 608.53 172.00 608.53 169.00 608.56 166.01 Z" />
<path fill="#ffffff" d=" M 857.60 167.26 C 861.29 166.69 864.98 166.09 868.68 165.50 C 868.75 189.66 868.69 213.82 868.71 237.98 C 864.99 238.01 861.27 238.01 857.56 237.99 C 857.56 214.42 857.49 190.84 857.60 167.26 Z" />
<path fill="#ffffff" d=" M 164.40 212.38 C 164.17 197.10 164.30 181.81 164.33 166.53 C 168.22 166.53 172.10 166.54 175.99 166.56 C 176.02 179.70 175.99 192.84 176.01 205.98 C 175.99 212.62 175.13 219.49 176.97 225.96 C 178.32 230.13 183.29 230.41 186.96 230.56 C 192.32 230.50 197.93 231.04 203.06 229.16 C 206.72 227.80 207.43 223.47 207.53 220.04 C 207.59 202.21 207.51 184.38 207.56 166.56 C 211.37 166.53 215.18 166.53 218.99 166.56 C 219.00 182.37 219.01 198.17 218.99 213.98 C 218.79 220.85 217.96 228.69 212.52 233.56 C 207.16 238.09 199.67 238.31 192.99 238.48 C 185.57 238.41 177.27 238.59 171.08 233.84 C 165.10 228.50 164.59 219.86 164.40 212.38 Z" />
<path fill="#ffffff" d=" M 320.30 170.45 C 323.93 169.81 327.57 169.20 331.22 168.64 C 331.25 174.08 331.22 179.53 331.23 184.97 C 334.39 184.99 337.55 185.01 340.72 185.03 C 340.71 187.01 340.71 188.99 340.72 190.97 C 337.55 190.99 334.39 191.01 331.23 191.03 C 331.25 202.03 331.20 213.04 331.25 224.05 C 331.37 226.23 331.21 228.58 332.29 230.57 C 334.83 231.60 337.71 230.18 340.33 229.86 C 340.28 232.51 340.21 235.16 340.18 237.82 C 335.13 238.32 329.70 239.30 324.88 237.17 C 321.21 235.34 320.24 230.78 320.27 227.03 C 320.28 215.03 320.31 203.03 320.27 191.03 C 317.94 191.03 315.61 190.97 313.29 190.97 C 313.28 188.99 313.28 187.01 313.28 185.03 C 315.61 185.03 317.94 184.97 320.28 184.97 C 320.29 180.13 320.29 175.29 320.30 170.45 Z" />
<path fill="#ffffff" d=" M 244.11 188.97 C 248.53 184.62 255.10 183.82 261.02 184.02 C 265.35 184.25 270.23 185.24 272.94 188.96 C 276.03 193.30 276.15 198.87 276.25 203.99 C 276.21 215.32 276.26 226.65 276.21 237.98 C 272.48 238.01 268.74 238.01 265.01 237.99 C 264.99 225.34 264.99 212.69 265.02 200.05 C 264.91 197.46 265.06 194.64 263.58 192.38 C 258.85 190.51 253.41 191.50 248.61 192.67 C 244.54 193.75 244.57 198.60 244.66 201.99 C 245.22 213.99 244.94 225.99 244.99 237.99 C 241.26 238.01 237.52 238.01 233.79 237.99 C 233.76 220.33 233.76 202.67 233.79 185.01 C 237.25 184.98 240.71 184.99 244.18 185.02 C 244.14 186.34 244.12 187.65 244.11 188.97 Z" />
<path fill="#ffffff" d=" M 354.25 190.25 C 356.98 186.15 362.14 184.52 366.85 184.25 C 373.67 183.86 380.80 183.46 387.34 185.78 C 390.94 187.00 393.29 190.44 394.11 194.03 C 395.45 199.66 395.26 205.50 395.20 211.24 C 384.42 212.67 373.52 211.72 362.68 212.02 C 362.90 217.24 362.66 222.51 363.41 227.70 C 364.50 231.25 369.01 230.72 371.94 231.00 C 375.85 230.88 380.59 231.64 383.69 228.69 C 384.75 226.00 384.63 223.05 384.91 220.22 C 387.93 221.01 390.96 221.79 393.99 222.55 C 394.06 228.23 392.70 235.65 386.29 237.33 C 378.70 239.18 370.61 238.77 363.01 237.18 C 357.37 236.30 353.12 231.25 352.38 225.72 C 351.44 219.21 351.48 212.60 351.62 206.04 C 351.86 200.73 351.77 195.10 354.25 190.25 Z" />
<path fill="#ffffff" d=" M 634.28 194.16 C 635.39 188.59 640.73 185.15 646.10 184.59 C 653.58 183.69 661.62 183.31 668.72 186.27 C 674.42 188.84 675.06 195.91 675.52 201.37 C 672.35 201.89 669.17 202.35 665.99 202.76 C 665.21 199.30 665.63 195.25 663.76 192.23 C 658.03 190.71 651.95 191.41 646.16 192.28 C 641.92 201.63 644.60 212.13 643.97 222.01 C 644.15 224.96 643.46 229.62 647.21 230.58 C 652.10 231.35 657.24 231.25 662.10 230.27 C 666.68 228.63 665.06 222.62 665.84 218.88 C 669.08 219.62 672.29 220.45 675.48 221.41 C 674.87 225.91 674.78 231.03 671.63 234.64 C 667.92 237.91 662.70 238.36 657.98 238.45 C 651.74 238.53 645.05 238.70 639.47 235.50 C 634.80 232.30 633.69 226.34 633.40 221.06 C 632.97 212.12 632.39 202.98 634.28 194.16 Z" />
<path fill="#ffffff" d=" M 693.58 186.50 C 698.59 183.89 704.46 183.96 709.96 184.00 C 715.00 184.27 720.84 184.48 724.55 188.42 C 728.05 191.97 728.39 197.26 728.46 201.97 C 728.44 213.97 728.47 225.98 728.44 237.99 C 725.39 238.01 722.35 238.01 719.31 237.98 C 719.12 235.76 718.93 233.54 718.80 231.33 C 717.50 234.10 715.55 236.77 712.35 237.37 C 706.14 238.79 699.28 239.24 693.26 236.87 C 686.86 234.00 686.16 226.03 686.26 219.91 C 686.05 215.78 689.07 212.18 692.81 210.79 C 700.55 207.68 709.08 208.02 717.27 207.99 C 717.12 203.04 717.72 198.04 716.95 193.13 C 712.20 190.53 706.25 191.34 701.05 191.88 C 697.52 192.38 698.63 196.52 698.35 199.00 C 695.31 199.01 692.27 199.00 689.23 198.97 C 689.01 194.50 689.23 189.04 693.58 186.50 Z" />
<path fill="#ffffff" d=" M 810.50 184.71 C 816.88 183.73 823.43 183.72 829.85 184.53 C 833.93 185.12 838.44 186.56 840.57 190.41 C 843.62 196.10 843.10 202.81 843.37 209.06 C 843.28 215.68 843.59 222.44 841.86 228.90 C 840.61 234.23 835.12 237.30 830.04 237.99 C 824.05 238.68 817.96 238.66 811.97 238.06 C 806.81 237.51 801.22 234.60 799.71 229.29 C 797.92 223.04 798.14 216.44 797.99 210.00 C 798.33 203.78 797.86 197.22 800.38 191.37 C 802.14 187.38 806.39 185.35 810.50 184.71 Z" />
<path fill="#ffffff" d=" M 888.53 186.53 C 893.88 183.75 900.17 183.93 906.03 184.04 C 910.76 184.34 916.16 184.74 919.59 188.46 C 923.05 192.01 923.39 197.28 923.46 201.97 C 923.44 213.97 923.47 225.98 923.44 237.99 C 920.39 238.01 917.35 238.01 914.32 237.98 C 914.11 235.74 913.92 233.50 913.79 231.26 C 912.55 234.07 910.57 236.75 907.37 237.36 C 901.15 238.79 894.27 239.25 888.23 236.86 C 881.85 233.97 881.16 226.01 881.27 219.89 C 881.06 215.78 884.06 212.19 887.78 210.80 C 895.53 207.68 904.07 208.02 912.27 207.99 C 912.17 203.33 912.57 198.66 912.12 194.02 C 911.90 192.08 909.45 192.03 908.01 191.71 C 903.74 191.34 899.29 190.99 895.14 192.18 C 892.51 193.34 893.75 196.77 893.35 198.99 C 890.30 199.01 887.27 199.01 884.24 198.97 C 884.01 194.52 884.22 189.09 888.53 186.53 Z" />
<path fill="#ffffff" d=" M 948.11 188.99 C 952.53 184.60 959.13 183.82 965.07 184.02 C 969.39 184.25 974.26 185.26 976.96 188.98 C 980.03 193.32 980.15 198.89 980.25 204.00 C 980.20 215.33 980.26 226.66 980.21 237.99 C 976.47 238.01 972.74 238.01 969.01 237.99 C 968.99 225.33 968.99 212.67 969.02 200.01 C 968.90 197.45 969.05 194.67 967.61 192.43 C 962.92 190.48 957.46 191.51 952.67 192.65 C 948.53 193.71 948.56 198.62 948.66 202.04 C 949.22 214.02 948.94 226.01 948.99 237.99 C 945.25 238.01 941.52 238.01 937.79 237.99 C 937.76 220.33 937.76 202.67 937.79 185.01 C 941.24 184.98 944.71 184.99 948.18 185.02 C 948.13 186.34 948.11 187.66 948.11 188.99 Z" />
<path fill="#ffffff" d=" M 291.01 185.01 C 294.74 184.98 298.48 184.99 302.21 185.02 C 302.24 202.67 302.24 220.33 302.21 237.98 C 298.48 238.01 294.74 238.01 291.01 237.99 C 290.99 220.33 291.00 202.67 291.01 185.01 Z" />
<path fill="#ffffff" d=" M 608.56 185.01 C 612.28 184.98 615.99 184.99 619.71 185.02 C 619.71 202.68 619.71 220.33 619.71 237.98 C 615.99 238.01 612.27 238.01 608.56 237.99 C 608.54 220.33 608.54 202.67 608.56 185.01 Z" />
<path fill="#ffffff" d=" M 750.57 185.57 C 758.46 183.84 768.39 183.36 774.31 189.89 C 774.43 188.52 774.56 187.14 774.71 185.77 C 778.13 185.76 781.55 185.76 784.98 185.79 C 785.03 200.52 784.97 215.26 785.01 230.00 C 784.88 235.37 784.86 240.89 783.09 246.02 C 781.45 250.74 776.69 253.66 771.92 254.38 C 763.96 255.63 755.76 255.04 747.97 253.01 C 748.19 250.38 748.39 247.75 748.61 245.11 C 755.77 247.37 763.76 248.82 771.00 246.16 C 775.03 243.63 773.40 238.12 773.92 234.16 C 767.69 239.45 758.73 238.40 751.33 236.70 C 745.96 235.64 742.43 230.39 741.74 225.22 C 740.61 216.02 740.91 206.71 741.65 197.49 C 742.08 192.33 744.93 186.47 750.57 185.57 Z" />
<path fill="#a5d6ef" d=" M 364.58 192.65 C 368.81 190.97 373.55 191.38 378.01 191.61 C 380.01 191.84 383.00 192.04 383.43 194.54 C 384.11 198.31 383.91 202.17 384.03 205.99 C 376.90 206.01 369.78 206.02 362.66 205.98 C 362.99 201.54 362.39 196.71 364.58 192.65 Z" />
<path fill="#a5d6ef" d=" M 420.29 192.43 C 425.36 191.00 430.85 191.11 435.96 192.24 C 438.55 192.72 439.73 195.52 439.55 197.92 C 439.56 206.63 439.56 215.35 439.55 224.07 C 439.59 226.49 438.76 229.55 436.06 230.17 C 431.51 231.37 426.68 231.18 422.05 230.63 C 420.09 230.48 418.17 229.10 418.20 226.99 C 417.63 218.05 417.58 209.06 417.80 200.11 C 418.12 197.50 417.92 194.15 420.29 192.43 Z" />
<path fill="#a5d6ef" d=" M 756.26 192.43 C 760.59 191.79 765.08 191.69 769.39 192.59 C 771.91 193.02 773.93 195.27 773.73 197.90 C 773.80 207.30 773.83 216.71 773.71 226.12 C 773.79 228.64 771.05 229.72 768.99 230.08 C 764.40 230.85 759.60 230.85 755.06 229.77 C 752.94 229.20 752.56 226.72 752.50 224.85 C 752.20 216.20 752.11 207.54 752.29 198.89 C 752.39 196.23 752.87 192.52 756.26 192.43 Z" />
<path fill="#a5d6ef" d=" M 811.36 192.43 C 817.02 190.86 823.19 191.15 828.96 192.03 C 832.50 192.52 831.67 196.48 831.84 199.04 C 832.21 208.60 832.47 218.18 831.55 227.71 C 831.49 229.98 828.85 230.56 827.05 230.74 C 822.49 231.14 817.86 231.23 813.34 230.53 C 811.49 230.30 809.66 229.02 809.83 226.96 C 808.86 216.67 809.32 206.33 809.71 196.03 C 809.68 194.67 809.90 193.00 811.36 192.43 Z" />
<path fill="#a5d6ef" d=" M 1006.31 192.42 C 1011.38 191.00 1016.88 191.11 1022.00 192.25 C 1024.59 192.75 1025.72 195.58 1025.55 197.98 C 1025.55 206.68 1025.56 215.38 1025.55 224.09 C 1025.59 226.51 1024.73 229.57 1022.03 230.18 C 1017.49 231.36 1012.67 231.18 1008.06 230.63 C 1006.10 230.48 1004.18 229.12 1004.20 227.00 C 1003.63 218.05 1003.58 209.07 1003.80 200.10 C 1004.12 197.50 1003.92 194.13 1006.31 192.42 Z" />
<path fill="#a5d6ef" d=" M 698.98 216.91 C 704.83 214.88 711.16 215.13 717.28 214.98 C 717.10 219.29 718.25 224.52 714.99 227.98 C 710.76 231.42 704.68 231.49 699.57 230.49 C 696.65 229.82 697.15 226.19 696.75 223.93 C 696.71 221.54 696.05 217.87 698.98 216.91 Z" />
<path fill="#a5d6ef" d=" M 894.00 216.90 C 899.85 214.88 906.17 215.13 912.28 214.98 C 912.10 219.31 913.26 224.55 909.96 228.01 C 905.73 231.42 899.67 231.49 894.58 230.50 C 891.66 229.82 892.14 226.21 891.76 223.95 C 891.71 221.55 891.04 217.86 894.00 216.90 Z" />
<path fill="#ffffff" d=" M 7.10 268.11 L 8.01 268.14 C 42.00 268.41 76.00 268.18 110.00 268.25 C 416.34 268.25 722.68 268.25 1029.02 268.25 C 1082.68 268.18 1136.34 268.41 1189.99 268.14 L 1190.90 268.11 C 1190.83 356.37 1190.83 444.63 1190.90 532.89 L 1189.99 532.86 C 1064.01 532.59 938.02 532.82 812.04 532.75 C 605.35 532.75 398.66 532.75 191.97 532.75 C 130.65 532.82 69.33 532.59 8.01 532.86 L 7.10 532.89 C 7.17 444.63 7.17 356.37 7.10 268.11 Z" />
<path fill="#ff0000" d=" M 186.01 300.01 C 206.55 299.97 227.09 300.06 247.63 299.96 C 244.73 302.85 243.35 306.76 242.79 310.74 C 227.11 310.68 211.44 310.73 195.77 310.72 C 195.76 351.56 195.78 392.41 195.76 433.26 C 214.50 449.64 233.24 466.02 252.00 482.39 C 270.75 466.02 289.50 449.64 308.24 433.26 C 308.22 392.41 308.24 351.56 308.23 310.72 C 292.56 310.73 276.89 310.68 261.21 310.74 C 260.65 306.76 259.26 302.85 256.37 299.96 C 276.91 300.05 297.45 299.97 317.99 300.01 C 318.02 347.47 317.98 394.93 318.01 442.39 C 296.03 461.64 274.00 480.85 252.00 500.08 C 230.01 480.93 208.13 461.64 186.07 442.57 C 185.91 395.05 186.04 347.53 186.01 300.01 Z" />
<path fill="#ff0000" d=" M 417.01 300.01 C 437.55 299.97 458.09 300.06 478.63 299.96 C 475.73 302.85 474.35 306.76 473.79 310.74 C 458.11 310.68 442.44 310.73 426.77 310.72 C 426.76 351.56 426.78 392.41 426.76 433.25 C 445.49 449.64 464.24 466.02 483.00 482.39 C 501.76 466.02 520.50 449.64 539.24 433.26 C 539.22 392.41 539.24 351.56 539.23 310.72 C 523.56 310.73 507.88 310.68 492.21 310.74 C 491.64 306.77 490.27 302.85 487.37 299.96 C 507.91 300.06 528.45 299.97 548.99 300.01 C 549.01 347.47 548.99 394.94 549.00 442.41 C 527.01 461.64 505.00 480.86 483.00 500.08 C 461.01 480.94 439.15 461.63 417.08 442.59 C 416.90 395.07 417.04 347.53 417.01 300.01 Z" />
<path fill="#ff0000" d=" M 648.01 300.01 C 668.55 299.97 689.09 300.06 709.63 299.96 C 706.73 302.85 705.35 306.76 704.79 310.74 C 689.11 310.68 673.44 310.73 657.77 310.72 C 657.76 351.56 657.78 392.41 657.76 433.26 C 676.49 449.64 695.24 466.02 714.00 482.39 C 732.76 466.02 751.50 449.64 770.24 433.25 C 770.22 392.41 770.24 351.56 770.23 310.72 C 754.56 310.73 738.88 310.68 723.21 310.74 C 722.63 306.77 721.28 302.84 718.37 299.96 C 738.91 300.05 759.45 299.97 779.99 300.01 C 780.04 347.44 779.93 394.88 780.05 442.32 C 758.09 461.64 736.01 480.81 714.00 500.08 C 692.00 480.83 669.94 461.64 647.97 442.36 C 648.04 394.91 647.97 347.46 648.01 300.01 Z" />
<path fill="#ff0000" d=" M 880.01 300.01 C 900.55 299.97 921.09 300.06 941.63 299.96 C 938.73 302.85 937.35 306.76 936.79 310.74 C 921.11 310.68 905.44 310.73 889.77 310.72 C 889.76 351.56 889.77 392.41 889.76 433.26 C 908.50 449.64 927.24 466.02 946.00 482.39 C 964.76 466.02 983.50 449.64 1002.24 433.26 C 1002.22 392.41 1002.24 351.56 1002.23 310.72 C 986.56 310.73 970.88 310.68 955.21 310.74 C 954.62 306.77 953.28 302.84 950.37 299.97 C 970.91 300.04 991.45 299.97 1011.99 300.01 C 1012.01 347.47 1011.98 394.93 1012.01 442.40 C 990.02 461.64 968.00 480.85 946.00 500.08 C 924.00 480.84 901.96 461.64 879.98 442.38 C 880.03 394.92 879.98 347.46 880.01 300.01 Z" />
<path fill="#ff0000" d=" M 241.16 319.32 C 243.35 315.34 247.16 311.64 252.02 311.84 C 256.86 311.66 260.65 315.35 262.84 319.32 C 274.98 319.36 287.12 319.32 299.25 319.33 C 299.26 327.16 299.25 334.98 299.25 342.80 C 286.41 354.04 273.55 365.25 260.71 376.49 C 260.72 377.72 260.73 378.96 260.73 380.20 C 262.63 380.20 264.54 380.20 266.45 380.21 C 266.45 383.65 266.45 387.08 266.45 390.52 C 264.54 390.53 262.63 390.52 260.72 390.54 C 260.72 415.83 260.72 441.13 260.72 466.43 C 259.37 466.42 258.03 466.42 256.69 466.43 C 256.68 467.90 256.68 469.38 256.69 470.87 C 253.56 470.87 250.44 470.87 247.31 470.87 C 247.31 469.38 247.31 467.90 247.31 466.43 C 245.96 466.42 244.62 466.42 243.28 466.43 C 243.28 461.59 243.27 456.76 243.28 451.93 C 241.32 451.92 239.38 451.92 237.43 451.93 C 237.41 453.99 237.42 456.05 237.40 458.12 C 229.73 451.45 222.11 444.72 214.41 438.09 C 214.35 430.07 214.40 422.06 214.38 414.05 C 222.06 414.04 229.74 414.04 237.42 414.04 C 237.42 417.18 237.42 420.31 237.42 423.45 C 234.38 423.44 231.34 423.45 228.31 423.45 C 228.31 426.27 228.30 429.10 228.31 431.94 C 233.30 431.94 238.29 431.94 243.28 431.94 C 243.28 418.14 243.28 404.34 243.28 390.54 C 241.37 390.52 239.45 390.53 237.55 390.52 C 237.55 387.09 237.55 383.66 237.54 380.23 C 239.44 380.21 241.36 380.20 243.27 380.19 C 243.26 378.95 243.27 377.72 243.29 376.49 C 230.45 365.26 217.59 354.04 204.75 342.81 C 204.74 334.98 204.75 327.16 204.74 319.34 C 216.88 319.31 229.02 319.36 241.16 319.32 Z" />
<path fill="#ff0000" d=" M 472.16 319.32 C 474.35 315.35 478.14 311.66 482.99 311.84 C 487.84 311.64 491.64 315.34 493.84 319.32 C 505.98 319.36 518.11 319.32 530.25 319.33 C 530.26 327.16 530.25 334.98 530.25 342.81 C 517.41 354.05 504.53 365.25 491.70 376.51 C 491.71 377.44 491.73 379.28 491.74 380.20 C 493.64 380.20 495.54 380.20 497.45 380.21 C 497.45 383.65 497.45 387.08 497.45 390.52 C 495.53 390.53 493.63 390.52 491.72 390.54 C 491.72 415.83 491.72 441.13 491.72 466.43 C 490.37 466.42 489.03 466.42 487.69 466.43 C 487.68 467.90 487.68 469.38 487.69 470.87 C 484.56 470.87 481.43 470.87 478.31 470.87 C 478.31 469.38 478.31 467.90 478.31 466.43 C 476.96 466.42 475.62 466.42 474.28 466.43 C 474.28 461.59 474.27 456.76 474.28 451.93 C 472.32 451.91 470.37 451.92 468.43 451.91 C 468.41 453.98 468.41 456.04 468.40 458.12 C 460.73 451.46 453.12 444.72 445.41 438.10 C 445.34 430.08 445.40 422.06 445.38 414.05 C 453.06 414.04 460.74 414.04 468.42 414.04 C 468.42 417.18 468.42 420.31 468.42 423.45 C 465.38 423.44 462.34 423.45 459.31 423.45 C 459.30 426.27 459.30 429.10 459.31 431.94 C 464.29 431.94 469.29 431.94 474.28 431.94 C 474.28 418.14 474.28 404.34 474.28 390.54 C 472.37 390.52 470.45 390.53 468.55 390.52 C 468.55 387.08 468.55 383.65 468.55 380.21 C 470.45 380.20 472.36 380.20 474.27 380.20 C 474.26 378.96 474.27 377.72 474.29 376.49 C 461.45 365.26 448.60 354.04 435.75 342.82 C 435.73 334.99 435.75 327.17 435.74 319.34 C 447.88 319.31 460.02 319.36 472.16 319.32 Z" />
<path fill="#ff0000" d=" M 703.16 319.32 C 705.35 315.35 709.13 311.66 713.98 311.84 C 718.85 311.64 722.64 315.34 724.84 319.32 C 736.98 319.36 749.11 319.32 761.25 319.33 C 761.26 327.15 761.25 334.98 761.25 342.80 C 748.41 354.04 735.55 365.25 722.71 376.49 C 722.71 377.72 722.73 378.96 722.73 380.20 C 724.63 380.20 726.53 380.20 728.45 380.21 C 728.45 383.65 728.45 387.08 728.45 390.52 C 726.53 390.53 724.63 390.52 722.72 390.54 C 722.72 415.83 722.72 441.13 722.72 466.43 C 721.37 466.42 720.02 466.42 718.69 466.43 C 718.68 467.90 718.68 469.38 718.69 470.87 C 715.56 470.87 712.43 470.87 709.31 470.87 C 709.30 469.38 709.30 467.90 709.31 466.43 C 707.96 466.42 706.62 466.42 705.28 466.43 C 705.28 461.59 705.27 456.76 705.28 451.93 C 703.32 451.92 701.37 451.92 699.43 451.92 C 699.41 453.99 699.41 456.05 699.40 458.13 C 692.00 451.63 684.53 445.20 677.16 438.67 C 675.97 437.84 676.52 436.21 676.35 435.02 C 676.39 428.03 676.38 421.04 676.38 414.05 C 684.06 414.04 691.74 414.04 699.42 414.04 C 699.42 417.18 699.41 420.31 699.42 423.45 C 696.38 423.44 693.34 423.45 690.31 423.45 C 690.30 426.27 690.30 429.10 690.31 431.94 C 695.29 431.94 700.28 431.94 705.28 431.94 C 705.28 418.14 705.28 404.34 705.28 390.54 C 703.36 390.52 701.45 390.53 699.55 390.52 C 699.54 387.08 699.54 383.65 699.55 380.21 C 701.45 380.20 703.36 380.20 705.27 380.20 C 705.25 378.96 705.26 377.72 705.29 376.49 C 692.45 365.26 679.60 354.04 666.75 342.81 C 666.74 334.99 666.75 327.16 666.74 319.34 C 678.88 319.31 691.02 319.36 703.16 319.32 Z" />
<path fill="#ff0000" d=" M 935.16 319.31 C 937.36 315.32 941.18 311.62 946.07 311.84 C 950.89 311.68 954.65 315.36 956.84 319.32 C 968.98 319.36 981.12 319.32 993.26 319.34 C 993.25 327.16 993.25 334.98 993.25 342.81 C 980.41 354.04 967.55 365.25 954.71 376.49 C 954.71 377.72 954.72 378.96 954.73 380.20 C 956.62 380.20 958.53 380.20 960.45 380.21 C 960.44 383.65 960.45 387.08 960.45 390.52 C 958.52 390.53 956.63 390.52 954.72 390.54 C 954.72 415.83 954.72 441.13 954.72 466.43 C 953.36 466.42 952.02 466.42 950.69 466.43 C 950.67 467.90 950.67 469.38 950.69 470.87 C 947.56 470.87 944.43 470.87 941.31 470.87 C 941.30 469.38 941.30 467.90 941.31 466.43 C 939.96 466.42 938.61 466.42 937.28 466.43 C 937.28 461.59 937.27 456.76 937.28 451.93 C 935.31 451.92 933.37 451.92 931.43 451.93 C 931.41 453.99 931.40 456.05 931.40 458.12 C 923.73 451.45 916.10 444.72 908.40 438.07 C 908.35 430.06 908.40 422.05 908.37 414.05 C 916.05 414.04 923.74 414.04 931.42 414.04 C 931.41 417.17 931.41 420.31 931.42 423.45 C 928.37 423.44 925.34 423.45 922.31 423.45 C 922.30 426.27 922.29 429.10 922.31 431.94 C 927.29 431.94 932.28 431.94 937.28 431.94 C 937.28 418.14 937.28 404.34 937.28 390.54 C 935.36 390.52 933.44 390.53 931.55 390.52 C 931.54 387.08 931.54 383.65 931.55 380.21 C 933.44 380.20 935.35 380.20 937.27 380.20 C 937.25 378.96 937.26 377.72 937.29 376.49 C 924.44 365.25 911.59 354.04 898.74 342.80 C 898.74 334.98 898.74 327.15 898.75 319.33 C 910.88 319.32 923.02 319.36 935.16 319.31 Z" />
<path fill="#ffffff" d=" M 249.24 319.20 C 254.22 316.82 259.94 321.75 259.30 326.97 C 259.25 332.00 253.37 336.06 248.81 333.44 C 243.20 330.75 243.44 321.51 249.24 319.20 Z" />
<path fill="#ffffff" d=" M 480.18 319.22 C 485.18 316.77 491.03 321.78 490.29 327.05 C 490.20 332.06 484.29 336.07 479.76 333.41 C 474.22 330.71 474.43 321.57 480.18 319.22 Z" />
<path fill="#ffffff" d=" M 711.22 319.21 C 716.20 316.80 722.00 321.76 721.29 327.01 C 721.23 332.02 715.35 336.05 710.81 333.44 C 705.21 330.76 705.42 321.53 711.22 319.21 Z" />
<path fill="#ffffff" d=" M 943.15 319.24 C 948.16 316.74 954.04 321.77 953.29 327.06 C 953.19 332.07 947.30 336.06 942.77 333.42 C 937.23 330.73 937.42 321.61 943.15 319.24 Z" />
<path fill="#ffffff" d=" M 214.53 333.45 C 223.39 333.45 232.26 333.42 241.12 333.46 C 243.29 337.48 247.12 341.12 251.98 341.04 C 256.84 341.14 260.71 337.51 262.88 333.47 C 271.76 333.42 280.65 333.44 289.53 333.45 C 289.18 335.35 290.29 337.93 288.54 339.33 C 280.98 346.03 273.30 352.61 265.72 359.30 C 256.57 359.31 247.43 359.31 238.28 359.30 C 230.36 352.32 222.35 345.45 214.47 338.44 C 214.49 336.77 214.51 335.11 214.53 333.45 Z" />
<path fill="#ffffff" d=" M 445.49 333.45 C 454.37 333.44 463.24 333.42 472.13 333.46 C 474.30 337.49 478.13 341.13 482.99 341.04 C 487.85 341.13 491.70 337.50 493.87 333.46 C 502.74 333.42 511.61 333.45 520.48 333.45 C 520.48 335.12 520.49 336.80 520.51 338.48 C 512.60 345.45 504.63 352.35 496.71 359.30 C 487.57 359.30 478.42 359.31 469.27 359.30 C 461.38 352.40 453.53 345.46 445.57 338.64 C 445.53 336.91 445.51 335.18 445.49 333.45 Z" />
<path fill="#ffffff" d=" M 676.53 333.45 C 685.39 333.45 694.26 333.42 703.12 333.46 C 705.29 337.49 709.13 341.13 713.99 341.04 C 718.85 341.14 722.70 337.50 724.88 333.46 C 733.74 333.42 742.61 333.45 751.48 333.45 C 751.48 335.12 751.49 336.80 751.51 338.47 C 743.61 345.45 735.63 352.33 727.72 359.30 C 718.58 359.31 709.43 359.30 700.29 359.30 C 692.37 352.33 684.35 345.45 676.47 338.43 C 676.48 336.77 676.51 335.11 676.53 333.45 Z" />
<path fill="#ffffff" d=" M 908.49 333.45 C 917.36 333.44 926.24 333.42 935.12 333.46 C 937.30 337.50 941.15 341.15 946.02 341.04 C 950.87 341.12 954.70 337.48 956.87 333.46 C 965.75 333.42 974.63 333.44 983.52 333.45 C 983.47 335.18 983.45 336.92 983.42 338.66 C 975.45 345.46 967.61 352.42 959.72 359.30 C 950.57 359.30 941.42 359.31 932.27 359.30 C 924.38 352.39 916.51 345.46 908.56 338.63 C 908.52 336.90 908.50 335.17 908.49 333.45 Z" />
<path fill="#a5d6ef" d=" M 8.01 532.86 C 69.33 532.59 130.65 532.82 191.97 532.75 C 398.66 532.75 605.35 532.75 812.04 532.75 C 938.02 532.82 1064.01 532.59 1189.99 532.86 C 1190.00 576.95 1190.00 621.05 1189.99 665.14 C 1083.99 665.41 977.99 665.18 871.98 665.25 C 669.66 665.25 467.33 665.25 265.00 665.25 C 179.34 665.18 93.67 665.41 8.01 665.14 C 8.00 621.05 8.00 576.95 8.01 532.86 Z" />
<path fill="#ffffff" d=" M 527.01 562.00 C 530.74 561.98 534.48 561.98 538.21 562.02 C 538.24 565.00 538.24 567.99 538.22 570.99 C 534.48 571.01 530.74 571.01 527.01 570.99 C 526.98 567.99 526.98 565.00 527.01 562.00 Z" />
<path fill="#ffffff" d=" M 354.01 563.56 C 364.35 563.57 374.69 563.47 385.03 563.60 C 390.78 563.94 397.56 564.76 401.24 569.79 C 405.18 575.60 404.84 583.28 403.68 589.91 C 402.67 595.59 398.29 600.40 392.57 601.51 C 395.24 602.57 398.07 603.78 399.78 606.23 C 401.71 608.76 402.22 611.99 402.76 615.04 C 403.75 621.36 404.86 627.66 405.87 633.97 C 401.89 634.01 397.90 634.01 393.92 633.98 C 392.66 626.54 392.37 618.91 390.32 611.61 C 389.50 608.91 387.95 605.69 384.79 605.36 C 378.37 604.62 371.89 605.13 365.45 605.03 C 365.44 614.68 365.48 624.34 365.43 633.99 C 361.62 634.01 357.82 634.01 354.01 633.99 C 353.99 610.52 353.99 587.04 354.01 563.56 Z" />
<path fill="#ffffff" d=" M 608.53 566.47 C 612.16 565.82 615.79 565.20 619.43 564.63 C 619.47 570.07 619.44 575.51 619.44 580.95 C 622.62 580.99 625.81 581.01 629.00 581.01 C 628.99 583.00 628.99 584.99 629.00 586.99 C 625.81 586.99 622.62 587.00 619.44 587.04 C 619.45 594.35 619.45 601.66 619.45 608.98 C 619.50 614.94 619.08 620.98 620.26 626.88 C 623.07 626.92 625.86 626.56 628.58 625.84 C 628.52 628.51 628.42 631.18 628.38 633.85 C 623.29 634.30 617.81 635.33 612.99 633.09 C 609.38 631.23 608.51 626.69 608.53 622.98 C 608.56 611.00 608.54 599.02 608.55 587.04 C 606.21 587.03 603.88 586.97 601.55 586.98 C 601.55 584.99 601.54 583.00 601.55 581.03 C 603.88 581.02 606.22 580.96 608.56 580.96 C 608.54 576.13 608.55 571.30 608.53 566.47 Z" />
<path fill="#a5d6ef" d=" M 365.44 571.03 C 373.32 571.22 381.30 570.37 389.09 571.68 C 394.46 572.65 392.72 579.10 393.04 582.98 C 392.76 587.37 394.25 594.17 388.94 596.08 C 381.27 597.88 373.25 596.67 365.44 596.96 C 365.46 588.32 365.45 579.68 365.44 571.03 Z" />
<path fill="#ffffff" d=" M 429.40 580.62 C 435.52 579.77 441.78 579.71 447.91 580.50 C 451.99 581.07 456.48 582.65 458.33 586.66 C 461.29 593.07 460.63 600.41 460.65 607.29 C 449.88 608.62 439.00 607.73 428.19 608.03 C 428.42 613.03 428.11 618.09 428.78 623.07 C 428.97 625.66 431.70 626.71 433.95 626.77 C 438.28 627.05 442.81 627.48 447.01 626.14 C 451.09 624.80 449.70 619.50 450.43 616.20 C 453.48 617.01 456.54 617.83 459.59 618.66 C 459.40 624.16 458.33 631.41 452.13 633.21 C 444.28 635.28 435.81 634.78 427.93 633.03 C 421.97 631.93 418.06 626.05 417.68 620.27 C 416.77 610.24 416.50 600.00 418.31 590.07 C 419.11 584.66 424.35 581.36 429.40 580.62 Z" />
<path fill="#ffffff" d=" M 476.98 583.10 C 481.38 580.21 486.92 580.21 491.99 579.98 C 497.43 580.00 503.52 579.50 508.16 582.91 C 511.12 585.10 511.11 589.12 511.78 592.40 C 509.05 593.28 506.30 594.08 503.53 594.79 C 502.99 592.67 503.14 590.19 501.69 588.44 C 496.72 586.73 491.16 587.26 486.06 588.11 C 483.76 588.49 483.05 590.92 483.18 592.94 C 483.28 595.38 482.77 598.37 484.62 600.30 C 492.20 602.77 500.57 601.91 507.98 605.02 C 511.83 606.75 513.38 611.08 513.41 615.05 C 513.64 620.59 513.99 627.44 509.09 631.21 C 503.28 635.33 495.72 634.33 489.01 634.45 C 484.03 634.30 477.81 633.76 474.98 629.01 C 473.08 626.27 472.92 622.87 472.58 619.68 C 475.66 618.59 478.75 617.54 481.85 616.52 C 482.58 619.77 481.35 625.09 485.37 626.48 C 490.11 627.24 495.05 627.30 499.80 626.56 C 502.93 625.58 502.75 621.63 503.13 619.00 C 503.20 616.57 504.04 612.99 501.36 611.65 C 494.24 609.49 486.39 610.62 479.47 607.58 C 475.40 605.80 473.29 601.35 473.08 597.09 C 472.68 592.26 472.75 586.33 476.98 583.10 Z" />
<path fill="#ffffff" d=" M 556.12 583.16 C 560.48 580.26 566.00 580.22 571.05 579.98 C 576.49 580.01 582.55 579.47 587.25 582.77 C 590.35 585.00 590.49 589.14 590.86 592.59 C 588.18 593.33 585.49 594.05 582.80 594.75 C 582.21 592.62 582.44 589.99 580.77 588.33 C 575.73 586.83 570.21 587.19 565.11 588.18 C 562.07 588.85 562.37 592.56 562.39 594.97 C 562.64 596.79 562.28 599.51 564.29 600.45 C 571.92 602.81 580.37 601.86 587.70 605.29 C 591.61 607.28 592.67 611.89 592.71 615.92 C 592.83 620.80 593.07 626.54 589.38 630.30 C 585.32 634.24 579.25 634.39 573.94 634.48 C 568.05 634.39 561.52 635.02 556.40 631.50 C 552.86 628.63 551.94 623.83 551.98 619.51 C 555.02 618.54 558.05 617.55 561.08 616.55 C 561.81 619.80 560.63 625.01 564.57 626.47 C 569.23 627.25 574.08 627.26 578.77 626.63 C 582.18 625.85 582.01 621.65 582.40 618.93 C 582.50 616.47 583.26 612.89 580.51 611.60 C 573.35 609.54 565.49 610.58 558.57 607.52 C 554.57 605.68 552.50 601.27 552.35 597.05 C 552.01 592.26 551.96 586.42 556.12 583.16 Z" />
<path fill="#ffffff" d=" M 645.87 582.80 C 650.66 579.92 656.55 580.04 661.96 579.98 C 667.09 580.23 672.97 580.29 676.94 584.05 C 680.75 587.59 681.16 593.15 681.24 598.03 C 681.22 610.01 681.25 622.00 681.21 633.98 C 678.16 634.00 675.11 634.01 672.06 634.00 C 671.86 631.67 671.63 629.35 671.51 627.02 C 670.43 629.91 668.54 632.65 665.33 633.30 C 658.87 634.82 651.60 635.36 645.41 632.57 C 639.49 629.42 638.97 621.83 638.98 615.90 C 638.82 611.74 641.89 608.14 645.66 606.75 C 653.37 603.70 661.84 604.00 669.99 604.00 C 669.87 599.06 670.34 594.10 669.74 589.20 C 665.10 586.46 659.11 587.42 653.95 587.85 C 650.31 588.23 651.39 592.45 651.13 594.99 C 648.07 595.01 645.01 595.01 641.95 594.99 C 641.77 590.67 641.90 585.51 645.87 582.80 Z" />
<path fill="#ffffff" d=" M 705.97 584.95 C 710.12 580.70 716.40 579.95 722.05 579.99 C 726.46 580.16 731.47 580.94 734.41 584.60 C 737.77 588.94 737.87 594.73 738.01 599.98 C 737.99 611.31 738.01 622.65 737.99 633.99 C 734.25 634.01 730.52 634.01 726.79 633.99 C 726.76 621.99 726.75 610.00 726.80 598.01 C 726.72 595.09 726.98 592.03 725.84 589.27 C 725.31 587.78 723.35 587.66 722.04 587.47 C 717.74 587.32 713.20 587.42 709.21 589.18 C 706.07 590.89 706.45 594.99 706.40 598.03 C 706.92 610.01 706.64 621.99 706.71 633.97 C 702.99 634.01 699.28 634.01 695.56 633.99 C 695.54 616.33 695.53 598.67 695.56 581.01 C 699.01 580.98 702.46 580.99 705.91 581.04 C 705.92 582.34 705.94 583.64 705.97 584.95 Z" />
<path fill="#ffffff" d=" M 752.99 587.04 C 755.77 581.60 762.44 580.44 767.96 580.10 C 774.42 579.88 781.37 579.67 787.23 582.81 C 792.10 585.88 792.66 592.27 792.88 597.49 C 789.76 597.91 786.64 598.34 783.53 598.77 C 783.02 595.23 782.46 591.70 781.77 588.19 C 775.83 587.23 769.41 586.69 763.64 588.66 C 760.60 594.24 761.32 600.95 761.35 607.08 C 761.81 612.67 760.79 618.39 762.00 623.90 C 763.11 627.65 767.91 626.91 770.96 627.06 C 774.57 626.70 779.06 627.61 781.88 624.75 C 783.31 621.71 782.88 618.16 783.33 614.89 C 786.51 615.64 789.68 616.42 792.86 617.23 C 792.42 621.89 792.34 627.29 788.86 630.86 C 783.59 635.09 776.36 634.39 770.02 634.46 C 764.00 634.26 756.57 633.44 753.35 627.53 C 750.20 621.20 750.85 613.86 750.54 607.01 C 750.72 600.34 750.06 593.23 752.99 587.04 Z" />
<path fill="#ffffff" d=" M 807.65 585.64 C 810.57 581.98 815.39 580.49 819.92 580.25 C 826.47 579.84 833.26 579.54 839.61 581.50 C 843.18 582.51 845.86 585.57 846.84 589.09 C 848.51 594.98 848.24 601.18 848.21 607.24 C 837.42 608.67 826.52 607.72 815.68 608.02 C 815.90 613.28 815.65 618.59 816.44 623.81 C 817.62 627.24 822.01 626.72 824.90 627.00 C 828.82 626.87 833.59 627.65 836.69 624.68 C 837.75 621.99 837.63 619.04 837.91 616.21 C 840.94 617.00 843.98 617.80 847.02 618.58 C 847.01 624.22 845.72 631.60 839.35 633.31 C 831.75 635.19 823.64 634.76 816.01 633.18 C 810.36 632.29 806.09 627.22 805.38 621.67 C 804.25 613.51 804.44 605.22 804.84 597.01 C 805.16 593.14 805.48 588.99 807.65 585.64 Z" />
<path fill="#ffffff" d=" M 527.01 581.01 C 530.74 580.98 534.48 580.98 538.21 581.01 C 538.24 598.67 538.24 616.33 538.22 633.98 C 534.48 634.01 530.74 634.01 527.01 633.99 C 526.99 616.33 526.99 598.67 527.01 581.01 Z" />
<path fill="#a5d6ef" d=" M 429.58 589.53 C 430.02 588.09 431.73 588.06 432.94 587.80 C 437.54 587.25 442.31 587.10 446.84 588.24 C 448.12 588.51 448.90 589.65 448.98 590.92 C 449.59 594.57 449.50 598.29 449.57 601.99 C 442.44 602.00 435.30 602.03 428.17 601.97 C 428.38 597.81 428.04 593.48 429.58 589.53 Z" />
<path fill="#a5d6ef" d=" M 816.49 591.36 C 816.88 589.99 817.27 588.15 819.03 588.09 C 823.27 587.18 827.68 587.26 831.98 587.73 C 833.75 587.90 836.15 588.45 836.44 590.59 C 837.09 594.34 836.92 598.18 837.03 601.99 C 829.90 602.01 822.78 602.02 815.66 601.98 C 815.80 598.43 815.75 594.84 816.49 591.36 Z" />
<path fill="#a5d6ef" d=" M 651.90 612.84 C 657.71 610.91 663.94 611.11 669.99 610.97 C 669.77 615.43 671.15 621.09 667.26 624.37 C 663.03 627.39 657.32 627.45 652.40 626.51 C 649.42 625.91 649.89 622.22 649.48 619.93 C 649.39 617.45 648.83 613.74 651.90 612.84 Z" />
<path fill="#ffffff" d=" M 7.10 665.11 L 8.01 665.14 C 93.67 665.41 179.34 665.18 265.00 665.25 C 467.33 665.25 669.66 665.25 871.98 665.25 C 977.99 665.18 1083.99 665.41 1189.99 665.14 L 1190.90 665.11 C 1190.82 707.08 1190.85 749.04 1190.88 791.01 C 1191.12 792.27 1190.30 793.95 1188.85 793.85 C 795.62 793.87 402.37 793.87 9.14 793.85 C 7.67 793.94 6.87 792.26 7.12 790.99 C 7.15 749.03 7.18 707.07 7.10 665.11 Z" />
</svg>
